<svg xmlns="http://www.w3.org/2000/svg" xmlns:xlink="http://www.w3.org/1999/xlink" version="1.1" enable-background="new 0 0 512 512" xml:space="preserve" width="515" height="515"><rect id="backgroundrect" width="100%" height="100%" x="0" y="0" fill="none" stroke="none" class="" style=""/><g class="currentLayer" style=""><title>Layer 1</title><g id="svg_1" class="" fill="#e84141" fill-opacity="1"><g id="svg_2" fill="#e84141" fill-opacity="1"><g id="svg_3" fill="#e84141" fill-opacity="1"><g id="svg_4" fill="#e84141" fill-opacity="1"><path d="M445.7158242516518,377.48500577688213 c-2.211,0 -4.039,-1.7890000000000001 -4.039,-4 s1.75,-4 3.9530000000000003,-4 h0.08600000000000158 c2.203,0 3.999,1.7890000000000001 3.999,4 S447.91882425165176,377.48500577688213 445.7158242516518,377.48500577688213 z" id="svg_5" fill="#e84141" fill-opacity="1"/></g></g></g><g id="svg_6" fill="#e84141" fill-opacity="1"><g id="svg_7" fill="#e84141" fill-opacity="1"><g id="svg_8" fill="#e84141" fill-opacity="1"><path d="M109.69182425165177,321.4870057768822 c-2.211,0 -4.039,-1.787 -4.039,-3.998 s1.75,-4 3.9530000000000003,-4 h0.08600000000000158 c2.203,0 4,1.7890000000000001 4,4 S111.89482425165177,321.4870057768822 109.69182425165177,321.4870057768822 z" id="svg_9" fill="#e84141" fill-opacity="1"/></g></g></g><g id="svg_10" fill="#e84141" fill-opacity="1"><g id="svg_11" fill="#e84141" fill-opacity="1"><g id="svg_12" fill="#e84141" fill-opacity="1"><path d="M109.69182425165177,393.48400577688216 c-2.211,0 -4.039,-1.787 -4.039,-3.998 s1.75,-4 3.9530000000000003,-4 h0.08600000000000158 c2.203,0 4,1.7890000000000001 4,4 S111.89482425165177,393.48400577688216 109.69182425165177,393.48400577688216 z" id="svg_13" fill="#e84141" fill-opacity="1"/></g></g></g><g id="svg_14" fill="#e84141" fill-opacity="1"><g id="svg_15" fill="#e84141" fill-opacity="1"><g id="svg_16" fill="#e84141" fill-opacity="1"><path d="M84.24082425165176,332.03400577688217 c-2.211,0 -4.039,-1.7890000000000001 -4.039,-4 s1.75,-4 3.9530000000000003,-4 h0.08600000000000158 c2.203,0 4,1.7890000000000001 4,4 S86.44382425165176,332.03400577688217 84.24082425165176,332.03400577688217 z" id="svg_17" fill="#e84141" fill-opacity="1"/></g></g></g><g id="svg_18" fill="#e84141" fill-opacity="1"><g id="svg_19" fill="#e84141" fill-opacity="1"><g id="svg_20" fill="#e84141" fill-opacity="1"><path d="M135.14282425165177,382.9390057768822 c-2.21,0 -4.038,-1.7890000000000001 -4.038,-4 s1.75,-4 3.952,-4 h0.08600000000000158 c2.203,0 4,1.7890000000000001 4,4 S137.34582425165178,382.9390057768822 135.14282425165177,382.9390057768822 z" id="svg_21" fill="#e84141" fill-opacity="1"/></g></g></g><g id="svg_22" fill="#e84141" fill-opacity="1"><g id="svg_23" fill="#e84141" fill-opacity="1"><g id="svg_24" fill="#e84141" fill-opacity="1"><path d="M73.69382425165176,357.48500577688213 c-2.211,0 -4.039,-1.787 -4.039,-3.998 s1.75,-4 3.9530000000000003,-4 h0.08600000000000158 c2.203,0 4,1.7890000000000001 4,4 S75.89682425165176,357.48500577688213 73.69382425165176,357.48500577688213 z" id="svg_25" fill="#e84141" fill-opacity="1"/></g></g></g><g id="svg_26" fill="#e84141" fill-opacity="1"><g id="svg_27" fill="#e84141" fill-opacity="1"><g id="svg_28" fill="#e84141" fill-opacity="1"><path d="M145.68982425165177,357.48500577688213 c-2.211,0 -4.039,-1.787 -4.039,-3.998 s1.75,-4 3.9530000000000003,-4 h0.08600000000000158 c2.203,0 4,1.7890000000000001 4,4 S147.89282425165177,357.48500577688213 145.68982425165177,357.48500577688213 z" id="svg_29" fill="#e84141" fill-opacity="1"/></g></g></g><g id="svg_30" fill="#e84141" fill-opacity="1"><g id="svg_31" fill="#e84141" fill-opacity="1"><g id="svg_32" fill="#e84141" fill-opacity="1"><path d="M84.24082425165176,382.9390057768822 c-2.211,0 -4.039,-1.7890000000000001 -4.039,-4 s1.75,-4 3.9530000000000003,-4 h0.08600000000000158 c2.203,0 4,1.7890000000000001 4,4 S86.44382425165176,382.9390057768822 84.24082425165176,382.9390057768822 z" id="svg_33" fill="#e84141" fill-opacity="1"/></g></g></g><g id="svg_34" fill="#e84141" fill-opacity="1"><g id="svg_35" fill="#e84141" fill-opacity="1"><g id="svg_36" fill="#e84141" fill-opacity="1"><path d="M135.14282425165177,332.03400577688217 c-2.21,0 -4.038,-1.7890000000000001 -4.038,-4 s1.75,-4 3.952,-4 h0.08600000000000158 c2.203,0 4,1.7890000000000001 4,4 S137.34582425165178,332.03400577688217 135.14282425165177,332.03400577688217 z" id="svg_37" fill="#e84141" fill-opacity="1"/></g></g></g><g id="svg_38" fill="#e84141" fill-opacity="1"><g id="svg_39" fill="#e84141" fill-opacity="1"><g id="svg_40" fill="#e84141" fill-opacity="1"><path d="M445.7158242516518,417.48400577688216 c-2.211,0 -4.039,-1.7890000000000001 -4.039,-4 s1.75,-4 3.9530000000000003,-4 h0.08600000000000158 c2.203,0 3.999,1.7890000000000001 3.999,4 S447.91882425165176,417.48400577688216 445.7158242516518,417.48400577688216 z" id="svg_41" fill="#e84141" fill-opacity="1"/></g></g></g><g id="svg_42" fill="#e84141" fill-opacity="1"><g id="svg_43" fill="#e84141" fill-opacity="1"><g id="svg_44" fill="#e84141" fill-opacity="1"><path d="M428.40282425165174,387.48500577688213 c-2.211,0 -4.039,-1.7890000000000001 -4.039,-4 s1.75,-4 3.9530000000000003,-4 h0.08600000000000158 c2.203,0 4,1.7890000000000001 4,4 S430.60582425165177,387.48500577688213 428.40282425165174,387.48500577688213 z" id="svg_45" fill="#e84141" fill-opacity="1"/></g></g></g><g id="svg_46" fill="#e84141" fill-opacity="1"><g id="svg_47" fill="#e84141" fill-opacity="1"><g id="svg_48" fill="#e84141" fill-opacity="1"><path d="M463.04182425165175,407.48400577688216 c-2.211,0 -4.039,-1.7890000000000001 -4.039,-4 s1.75,-4 3.9530000000000003,-4 h0.08600000000000158 c2.203,0 4,1.7890000000000001 4,4 S465.2448242516518,407.48400577688216 463.04182425165175,407.48400577688216 z" id="svg_49" fill="#e84141" fill-opacity="1"/></g></g></g><g id="svg_50" fill="#e84141" fill-opacity="1"><g id="svg_51" fill="#e84141" fill-opacity="1"><g id="svg_52" fill="#e84141" fill-opacity="1"><path d="M428.40282425165174,407.48400577688216 c-2.211,0 -4.039,-1.7890000000000001 -4.039,-4 s1.75,-4 3.9530000000000003,-4 h0.08600000000000158 c2.203,0 4,1.7890000000000001 4,4 S430.60582425165177,407.48400577688216 428.40282425165174,407.48400577688216 z" id="svg_53" fill="#e84141" fill-opacity="1"/></g></g></g><g id="svg_54" fill="#e84141" fill-opacity="1"><g id="svg_55" fill="#e84141" fill-opacity="1"><g id="svg_56" fill="#e84141" fill-opacity="1"><path d="M463.04182425165175,387.48500577688213 c-2.211,0 -4.039,-1.7890000000000001 -4.039,-4 s1.75,-4 3.9530000000000003,-4 h0.08600000000000158 c2.203,0 4,1.7890000000000001 4,4 S465.2448242516518,387.48500577688213 463.04182425165175,387.48500577688213 z" id="svg_57" fill="#e84141" fill-opacity="1"/></g></g></g><g id="svg_58" fill="#e84141" fill-opacity="1"><g id="svg_59" fill="#e84141" fill-opacity="1"><g id="svg_60" fill="#e84141" fill-opacity="1"><path d="M365.47682425165175,397.48400577688216 c-2.211,0 -4,-1.7890000000000001 -4,-4 c0,-46.309 37.678,-83.994 83.996,-83.994 c2.211,0 4,1.7890000000000001 4,4 s-1.7890000000000001,4 -4,4 c-41.904,0 -75.996,34.092 -75.996,75.994 C369.47682425165175,395.6940057768822 367.68782425165176,397.48400577688216 365.47682425165175,397.48400577688216 z" id="svg_61" fill="#e84141" fill-opacity="1"/></g></g></g><g id="svg_62" fill="#e84141" fill-opacity="1"><g id="svg_63" fill="#e84141" fill-opacity="1"><g id="svg_64" fill="#e84141" fill-opacity="1"><path d="M109.49682425165176,413.48400577688216 c-33.084,0 -59.996,-26.92 -59.996,-60.004 s26.912,-59.998 59.996,-59.998 s59.997,26.914 59.997,59.998 S142.58082425165176,413.48400577688216 109.49682425165176,413.48400577688216 zM109.49682425165176,301.48200577688215 c-28.67,0 -51.997,23.326 -51.997,51.998 c0,28.678 23.327,52.004 51.997,52.004 s51.997,-23.326 51.997,-52.004 C161.49382425165177,324.80800577688217 138.16582425165177,301.48200577688215 109.49682425165176,301.48200577688215 z" id="svg_65" fill="#e84141" fill-opacity="1"/></g></g></g><g id="svg_66" fill="#e84141" fill-opacity="1"><g id="svg_67" fill="#e84141" fill-opacity="1"><g id="svg_68" fill="#e84141" fill-opacity="1"><path d="M109.49682425165176,373.48500577688213 C98.46482425165176,373.48500577688213 89.49782425165176,364.5090057768822 89.49782425165176,353.4800057768822 c0,-11.023 8.968,-20 19.999,-20 s19.999,8.977 19.999,20 C129.49582425165175,364.5090057768822 120.52782425165177,373.48500577688213 109.49682425165176,373.48500577688213 zM109.49682425165176,341.4800057768822 c-6.617,0 -11.999,5.383 -11.999,12 c0,6.615 5.382,12.006 11.999,12.006 s12,-5.391 12,-12.006 C121.49682425165176,346.8620057768822 116.11382425165176,341.4800057768822 109.49682425165176,341.4800057768822 z" id="svg_69" fill="#e84141" fill-opacity="1"/></g></g></g><g id="svg_70" fill="#e84141" fill-opacity="1"><g id="svg_71" fill="#e84141" fill-opacity="1"><g id="svg_72" fill="#e84141" fill-opacity="1"><path d="M445.47382425165176,429.48200577688215 c-19.852,0 -35.998,-16.146 -35.998,-35.998 c0,-19.85 16.146,-35.998 35.998,-35.998 c19.85,0 35.998,16.148 35.998,35.998 C481.47182425165175,413.33500577688216 465.32282425165175,429.48200577688215 445.47382425165176,429.48200577688215 zM445.47382425165176,365.48500577688213 c-15.438,0 -27.999,12.562 -27.999,27.998 c0,15.438 12.562,28 27.999,28 c15.436,0 27.998,-12.562 27.998,-28 C473.47182425165175,378.0480057768822 460.90882425165177,365.48500577688213 445.47382425165176,365.48500577688213 z" id="svg_73" fill="#e84141" fill-opacity="1"/></g></g></g><g id="svg_74" fill="#e84141" fill-opacity="1"><g id="svg_75" fill="#e84141" fill-opacity="1"><g id="svg_76" fill="#e84141" fill-opacity="1"><path d="M445.47382425165176,405.48400577688216 c-6.617,0 -12,-5.383 -12,-12 c0,-6.615 5.383,-11.998 12,-11.998 c6.616,0 11.999,5.383 11.999,11.998 C457.4728242516518,400.1010057768822 452.08982425165175,405.48400577688216 445.47382425165176,405.48400577688216 zM445.47382425165176,389.48500577688213 c-2.203,0 -4,1.7970000000000002 -4,3.998 c0,2.203 1.7970000000000002,4 4,4 s4,-1.7970000000000002 4,-4 C449.47382425165176,391.28200577688216 447.67682425165174,389.48500577688213 445.47382425165176,389.48500577688213 z" id="svg_77" fill="#e84141" fill-opacity="1"/></g></g></g><g id="svg_78" fill="#e84141" fill-opacity="1"><g id="svg_79" fill="#e84141" fill-opacity="1"><g id="svg_80" fill="#e84141" fill-opacity="1"><path d="M157.40082425165176,229.49300577688217 H61.49882425165176 c-2.211,0 -4,-1.7890000000000001 -4,-4 s1.7890000000000001,-4 4,-4 h95.901 c2.211,0 4,1.7890000000000001 4,4 S159.61182425165177,229.49300577688217 157.40082425165176,229.49300577688217 z" id="svg_81" fill="#e84141" fill-opacity="1"/></g></g></g><g id="svg_82" fill="#e84141" fill-opacity="1"><g id="svg_83" fill="#e84141" fill-opacity="1"><g id="svg_84" fill="#e84141" fill-opacity="1"><path d="M469.47182425165175,325.4870057768822 c-2.211,0 -4,-1.7890000000000001 -4,-4 v-79.994 c0,-2.211 1.7890000000000001,-4 4,-4 s4,1.7890000000000001 4,4 v79.994 C473.47182425165175,323.69800577688216 471.68282425165177,325.4870057768822 469.47182425165175,325.4870057768822 z" id="svg_85" fill="#e84141" fill-opacity="1"/></g></g></g><g id="svg_86" fill="#e84141" fill-opacity="1"><g id="svg_87" fill="#e84141" fill-opacity="1"><g id="svg_88" fill="#e84141" fill-opacity="1"><path d="M501.46982425165174,349.4870057768822 c-2.211,0 -4,-1.7890000000000001 -4,-4 v-24 c0,-2.209 1.7890000000000001,-3.998 4,-3.998 s4,1.7890000000000001 4,3.998 v24 C505.46982425165174,347.69800577688216 503.68082425165176,349.4870057768822 501.46982425165174,349.4870057768822 z" id="svg_89" fill="#e84141" fill-opacity="1"/></g></g></g><g id="svg_90" fill="#e84141" fill-opacity="1"><g id="svg_91" fill="#e84141" fill-opacity="1"><g id="svg_92" fill="#e84141" fill-opacity="1"><path d="M277.48182425165174,77.50200577688217 h-200 c-2.211,0 -4,-1.7890000000000001 -4,-4 s1.7890000000000001,-4 4,-4 h200 c2.21,0 3.999,1.7890000000000001 3.999,4 S279.6918242516518,77.50200577688217 277.48182425165174,77.50200577688217 z" id="svg_93" fill="#e84141" fill-opacity="1"/></g></g></g><g id="svg_94" fill="#e84141" fill-opacity="1"><g id="svg_95" fill="#e84141" fill-opacity="1"><g id="svg_96" fill="#e84141" fill-opacity="1"><path d="M293.47382425165176,213.49300577688217 c-2,0 -3.7270000000000003,-1.498 -3.9610000000000003,-3.529 L273.5138242516518,73.97000577688218 c-0.266,-2.195 1.3050000000000002,-4.188 3.5,-4.438 c2.124,-0.28 4.179,1.3050000000000002 4.437,3.5 l16,135.994 c0.266,2.195 -1.3050000000000002,4.188 -3.5,4.436 C293.79382425165176,213.48500577688216 293.62982425165177,213.49300577688217 293.47382425165176,213.49300577688217 z" id="svg_97" fill="#e84141" fill-opacity="1"/></g></g></g><g id="svg_98" fill="#e84141" fill-opacity="1"><g id="svg_99" fill="#e84141" fill-opacity="1"><g id="svg_100" fill="#e84141" fill-opacity="1"><path d="M61.506824251651764,213.17500577688216 c-0.15600000000000044,0 -0.3200000000000048,-0.008000000000000076 -0.4770000000000003,-0.023000000000000503 c-2.195,-0.266 -3.766,-2.25 -3.5,-4.445 L73.51382425165177,73.03300577688218 c0.25,-2.195 2.266,-3.7720000000000002 4.438,-3.5 c2.195,0.25 3.766,2.242 3.5,4.438 L65.46682425165176,209.64400577688218 C65.23282425165176,211.68300577688217 63.505824251651774,213.17500577688216 61.506824251651764,213.17500577688216 z" id="svg_101" fill="#e84141" fill-opacity="1"/></g></g></g><g id="svg_102" fill="#e84141" fill-opacity="1"><g id="svg_103" fill="#e84141" fill-opacity="1"><g id="svg_104" fill="#e84141" fill-opacity="1"><path d="M173.49282425165177,229.49300577688217 c-2.211,0 -3.999,-1.7890000000000001 -3.999,-4 V89.50100577688217 c0,-2.211 1.788,-4 3.999,-4 s4,1.7890000000000001 4,4 v135.993 C177.49282425165177,227.70400577688218 175.70382425165175,229.49300577688217 173.49282425165177,229.49300577688217 z" id="svg_105" fill="#e84141" fill-opacity="1"/></g></g></g><g id="svg_106" fill="#e84141" fill-opacity="1"><g id="svg_107" fill="#e84141" fill-opacity="1"><g id="svg_108" fill="#e84141" fill-opacity="1"><g id="svg_109" fill="#e84141" fill-opacity="1"><path d="M157.50182425165175,213.49300577688217 H78.54482425165176 c-1.141,0 -2.219,-0.4820000000000003 -2.977,-1.326 s-1.125,-1.984 -1,-3.109 L87.76382425165177,89.06300577688216 c0.22700000000000278,-2.031 1.937,-3.5620000000000003 3.976,-3.5620000000000003 h65.763 c2.211,0 3.999,1.7890000000000001 3.999,4 V209.49500577688218 C161.50082425165175,211.70600577688217 159.71282425165177,213.49300577688217 157.50182425165175,213.49300577688217 zM83.00582425165176,205.49500577688218 h70.496 V93.50100577688217 H95.32582425165177 L83.00582425165176,205.49500577688218 z" id="svg_110" fill="#e84141" fill-opacity="1"/></g></g></g></g><g id="svg_111" fill="#e84141" fill-opacity="1"><g id="svg_112" fill="#e84141" fill-opacity="1"><g id="svg_113" fill="#e84141" fill-opacity="1"><path d="M237.48982425165175,293.48900577688215 c-1.023,0 -2.047,-0.3910000000000052 -2.8280000000000003,-1.172 l-63.997,-63.996 c-1.562,-1.562 -1.562,-4.094 0,-5.6560000000000015 c1.562,-1.562 4.094,-1.562 5.6560000000000015,0 l63.997,63.996 c1.562,1.562 1.562,4.094 0,5.6560000000000015 C239.53682425165175,293.09900577688217 238.51282425165175,293.48900577688215 237.48982425165175,293.48900577688215 z" id="svg_114" fill="#e84141" fill-opacity="1"/></g></g></g><g id="svg_115" fill="#e84141" fill-opacity="1"><g id="svg_116" fill="#e84141" fill-opacity="1"><g id="svg_117" fill="#e84141" fill-opacity="1"><path d="M21.500824251651764,269.49100577688216 c-1.023,0 -2.047,-0.3910000000000052 -2.8280000000000003,-1.172 c-1.562,-1.562 -1.562,-4.094 0,-5.6560000000000015 l39.998,-39.998 c1.562,-1.562 4.093,-1.562 5.655,0 s1.562,4.094 0,5.6560000000000015 l-39.997,39.998 C23.547824251651765,269.1010057768822 22.524824251651765,269.49100577688216 21.500824251651764,269.49100577688216 z" id="svg_118" fill="#e84141" fill-opacity="1"/></g></g></g><g id="svg_119" fill="#e84141" fill-opacity="1"><g id="svg_120" fill="#e84141" fill-opacity="1"><g id="svg_121" fill="#e84141" fill-opacity="1"><path d="M293.48082425165177,293.48900577688215 h-55.992 c-2.211,0 -4,-1.7890000000000001 -4,-4 s1.7890000000000001,-4 4,-4 h55.992 c2.211,0 4,1.7890000000000001 4,4 S295.6918242516518,293.48900577688215 293.48082425165177,293.48900577688215 z" id="svg_122" fill="#e84141" fill-opacity="1"/></g></g></g><g id="svg_123" fill="#e84141" fill-opacity="1"><g id="svg_124" fill="#e84141" fill-opacity="1"><g id="svg_125" fill="#e84141" fill-opacity="1"><path d="M357.47682425165175,373.48500577688213 H229.49082425165176 c-2.211,0 -4,-1.7890000000000001 -4,-4 s1.7890000000000001,-4 4,-4 h127.987 c2.211,0 4,1.7890000000000001 4,4 S359.68782425165176,373.48500577688213 357.47682425165175,373.48500577688213 z" id="svg_126" fill="#e84141" fill-opacity="1"/></g></g></g><g id="svg_127" fill="#e84141" fill-opacity="1"><g id="svg_128" fill="#e84141" fill-opacity="1"><g id="svg_129" fill="#e84141" fill-opacity="1"><path d="M501.46982425165174,325.4870057768822 c-2.211,0 -4,-1.7890000000000001 -4,-4 c0,-2.201 -1.7970000000000002,-3.998 -3.999,-3.998 c-2.211,0 -4,-1.7890000000000001 -4,-4 s1.7890000000000001,-4 4,-4 c6.616,0 11.999,5.383 11.999,11.998 C505.46982425165174,323.69800577688216 503.68082425165176,325.4870057768822 501.46982425165174,325.4870057768822 z" id="svg_130" fill="#e84141" fill-opacity="1"/></g></g></g><g id="svg_131" fill="#e84141" fill-opacity="1"><g id="svg_132" fill="#e84141" fill-opacity="1"><g id="svg_133" fill="#e84141" fill-opacity="1"><path d="M493.4708242516518,317.48900577688215 h-15.999 c-2.211,0 -4,-1.7890000000000001 -4,-4 s1.7890000000000001,-4 4,-4 h15.999 c2.21,0 3.999,1.7890000000000001 3.999,4 S495.68082425165176,317.48900577688215 493.4708242516518,317.48900577688215 z" id="svg_134" fill="#e84141" fill-opacity="1"/></g></g></g><g id="svg_135" fill="#e84141" fill-opacity="1"><g id="svg_136" fill="#e84141" fill-opacity="1"><g id="svg_137" fill="#e84141" fill-opacity="1"><path d="M101.49682425165176,269.49100577688216 c-0.6020000000000006,0 -1.211,-0.14100000000000001 -1.7890000000000001,-0.4220000000000003 c-1.976,-0.984 -2.7720000000000002,-3.391 -1.788,-5.367 l7.999,-15.998 c0.992,-1.9769999999999999 3.391,-2.758 5.367,-1.7890000000000001 c1.9769999999999999,0.984 2.773,3.391 1.7890000000000001,5.365 l-8,16 C104.37182425165176,268.67900577688215 102.95682425165177,269.49100577688216 101.49682425165176,269.49100577688216 z" id="svg_138" fill="#e84141" fill-opacity="1"/></g></g></g><g id="svg_139" fill="#e84141" fill-opacity="1"><g id="svg_140" fill="#e84141" fill-opacity="1"><g id="svg_141" fill="#e84141" fill-opacity="1"><path d="M68.44382425165176,279.2570057768822 c-0.10200000000000002,0 -0.19500000000000278,0 -0.2890000000000003,-0.01600000000000033 c-2.203,-0.15600000000000044 -3.867,-2.062 -3.7110000000000003,-4.266 l1.266,-17.852 c0.15600000000000044,-2.211 2.289,-3.8520000000000003 4.273,-3.7110000000000003 c2.203,0.15600000000000044 3.867,2.07 3.7110000000000003,4.273 l-1.266,17.852 C72.27982425165176,277.64800577688214 70.52182425165176,279.2570057768822 68.44382425165176,279.2570057768822 z" id="svg_142" fill="#e84141" fill-opacity="1"/></g></g></g><g id="svg_143" fill="#e84141" fill-opacity="1"><g id="svg_144" fill="#e84141" fill-opacity="1"><g id="svg_145" fill="#e84141" fill-opacity="1"><path d="M41.624824251651766,300.9270057768822 c-1.6800000000000006,0 -3.234,-1.062 -3.797,-2.734 l-5.6560000000000015,-16.982 c-0.695000000000013,-2.094 0.4380000000000046,-4.359 2.531,-5.062 c2.102,-0.6880000000000119 4.359,0.4380000000000046 5.062,2.531 l5.6560000000000015,16.982 c0.695000000000013,2.094 -0.4380000000000046,4.359 -2.531,5.062 C42.46882425165176,300.86400577688215 42.04682425165176,300.9270057768822 41.624824251651766,300.9270057768822 z" id="svg_146" fill="#e84141" fill-opacity="1"/></g></g></g><g id="svg_147" fill="#e84141" fill-opacity="1"><g id="svg_148" fill="#e84141" fill-opacity="1"><g id="svg_149" fill="#e84141" fill-opacity="1"><path d="M25.157824251651764,331.2060057768822 c-1.117,0 -2.227,-0.4690000000000003 -3.023,-1.375 L10.400824251651764,316.3020057768822 c-1.445,-1.6640000000000001 -1.266,-4.188 0.39800000000000585,-5.641 c1.6720000000000006,-1.453 4.188,-1.266 5.648,0.406 l11.732,13.514 c1.445,1.6720000000000006 1.266,4.203 -0.39800000000000585,5.641 C27.023824251651764,330.88600577688214 26.086824251651763,331.2060057768822 25.157824251651764,331.2060057768822 z" id="svg_150" fill="#e84141" fill-opacity="1"/></g></g></g><g id="svg_151" fill="#e84141" fill-opacity="1"><g id="svg_152" fill="#e84141" fill-opacity="1"><g id="svg_153" fill="#e84141" fill-opacity="1"><path d="M21.516824251651762,365.48500577688213 c-0.6020000000000006,0 -1.211,-0.14100000000000001 -1.7890000000000001,-0.4220000000000003 l-16.015,-8.006 c-1.9769999999999999,-0.992 -2.773,-3.391 -1.7890000000000001,-5.367 c1,-1.984 3.398,-2.766 5.367,-1.7890000000000001 l16.015,8.006 c1.9769999999999999,0.984 2.773,3.391 1.7890000000000001,5.367 C24.391824251651762,364.6730057768822 22.977824251651764,365.48500577688213 21.516824251651762,365.48500577688213 z" id="svg_154" fill="#e84141" fill-opacity="1"/></g></g></g><g id="svg_155" fill="#e84141" fill-opacity="1"><g id="svg_156" fill="#e84141" fill-opacity="1"><g id="svg_157" fill="#e84141" fill-opacity="1"><path d="M31.289824251651766,398.54600577688217 c-0.10200000000000002,0 -0.19500000000000278,0 -0.2890000000000003,-0.01600000000000033 l-17.873,-1.266 c-2.203,-0.14800000000000021 -3.867,-2.062 -3.7110000000000003,-4.264 c0.15600000000000044,-2.219 2.25,-3.8360000000000003 4.273,-3.7030000000000003 l17.873,1.266 c2.203,0.14800000000000021 3.867,2.062 3.7110000000000003,4.264 C35.124824251651766,396.9370057768822 33.36782425165177,398.54600577688217 31.289824251651766,398.54600577688217 z" id="svg_158" fill="#e84141" fill-opacity="1"/></g></g></g><g id="svg_159" fill="#e84141" fill-opacity="1"><g id="svg_160" fill="#e84141" fill-opacity="1"><g id="svg_161" fill="#e84141" fill-opacity="1"><path d="M35.95382425165177,431.0210057768822 c-1.6720000000000006,0 -3.234,-1.055 -3.797,-2.732 c-0.695000000000013,-2.102 0.4380000000000046,-4.367 2.531,-5.055 l16.984,-5.6720000000000015 c2.108,-0.6880000000000119 4.358,0.4380000000000046 5.062,2.531 c0.695000000000013,2.094 -0.4380000000000046,4.359 -2.531,5.062 l-16.983,5.654 C36.79682425165176,430.95000577688216 36.374824251651766,431.0210057768822 35.95382425165177,431.0210057768822 z" id="svg_162" fill="#e84141" fill-opacity="1"/></g></g></g><g id="svg_163" fill="#e84141" fill-opacity="1"><g id="svg_164" fill="#e84141" fill-opacity="1"><g id="svg_165" fill="#e84141" fill-opacity="1"><path d="M69.70182425165176,453.5670057768822 c-1.117,0 -2.227,-0.461 -3.023,-1.383 c-1.445,-1.6640000000000001 -1.266,-4.188 0.39800000000000585,-5.641 l13.516,-11.734 c1.6640000000000001,-1.445 4.188,-1.2730000000000001 5.648,0.406 c1.445,1.6640000000000001 1.266,4.188 -0.39800000000000585,5.641 l-13.516,11.734 C71.56882425165176,453.2470057768822 70.63082425165176,453.5670057768822 69.70182425165176,453.5670057768822 z" id="svg_166" fill="#e84141" fill-opacity="1"/></g></g></g><g id="svg_167" fill="#e84141" fill-opacity="1"><g id="svg_168" fill="#e84141" fill-opacity="1"><g id="svg_169" fill="#e84141" fill-opacity="1"><path d="M109.49682425165176,461.48200577688215 c-0.6020000000000006,0 -1.211,-0.14100000000000001 -1.7890000000000001,-0.4220000000000003 c-1.9769999999999999,-0.984 -2.773,-3.391 -1.7890000000000001,-5.367 l8,-16.016 c0.992,-1.9769999999999999 3.391,-2.766 5.367,-1.7890000000000001 c1.9769999999999999,0.984 2.773,3.391 1.7890000000000001,5.367 l-8,16.016 C112.37182425165176,460.66900577688216 110.95682425165177,461.48200577688215 109.49682425165176,461.48200577688215 z" id="svg_170" fill="#e84141" fill-opacity="1"/></g></g></g><g id="svg_171" fill="#e84141" fill-opacity="1"><g id="svg_172" fill="#e84141" fill-opacity="1"><g id="svg_173" fill="#e84141" fill-opacity="1"><path d="M149.29882425165175,453.5670057768822 c-0.10200000000000002,0 -0.19500000000000278,-0.008000000000000076 -0.2890000000000003,-0.008000000000000076 c-2.203,-0.15600000000000044 -3.867,-2.07 -3.7110000000000003,-4.273 l1.266,-17.859 c0.15600000000000044,-2.209 2.25,-3.865 4.273,-3.709 c2.203,0.15600000000000044 3.867,2.068 3.7110000000000003,4.271 l-1.266,17.859 C153.13482425165176,451.95800577688215 151.37682425165175,453.5670057768822 149.29882425165175,453.5670057768822 z" id="svg_174" fill="#e84141" fill-opacity="1"/></g></g></g><g id="svg_175" fill="#e84141" fill-opacity="1"><g id="svg_176" fill="#e84141" fill-opacity="1"><g id="svg_177" fill="#e84141" fill-opacity="1"><path d="M183.03982425165177,431.0210057768822 c-1.6720000000000006,0 -3.234,-1.055 -3.797,-2.732 l-5.6720000000000015,-16.984 c-0.695000000000013,-2.094 0.4380000000000046,-4.359 2.531,-5.055 s4.359,0.4220000000000003 5.062,2.523 l5.6720000000000015,16.984 c0.695000000000013,2.094 -0.4380000000000046,4.357 -2.531,5.053 C183.88282425165175,430.95000577688216 183.46082425165176,431.0210057768822 183.03982425165177,431.0210057768822 z" id="svg_178" fill="#e84141" fill-opacity="1"/></g></g></g><g id="svg_179" fill="#e84141" fill-opacity="1"><g id="svg_180" fill="#e84141" fill-opacity="1"><g id="svg_181" fill="#e84141" fill-opacity="1"><path d="M205.58482425165175,397.28000577688215 c-1.117,0 -2.227,-0.4690000000000003 -3.023,-1.375 l-11.733,-13.514 c-1.445,-1.6720000000000006 -1.266,-4.195 0.39800000000000585,-5.641 c1.6720000000000006,-1.453 4.188,-1.2810000000000001 5.648,0.3910000000000052 l11.732,13.516 c1.445,1.6720000000000006 1.266,4.193 -0.39800000000000585,5.639 C207.45182425165177,396.96000577688216 206.51382425165176,397.28000577688215 205.58482425165175,397.28000577688215 z" id="svg_182" fill="#e84141" fill-opacity="1"/></g></g></g><g id="svg_183" fill="#e84141" fill-opacity="1"><g id="svg_184" fill="#e84141" fill-opacity="1"><g id="svg_185" fill="#e84141" fill-opacity="1"><path d="M213.49082425165176,357.48500577688213 c-0.6020000000000006,0 -1.211,-0.139 -1.7890000000000001,-0.4200000000000003 l-16.014,-8 c-1.9769999999999999,-0.984 -2.773,-3.391 -1.7890000000000001,-5.367 c1,-1.9769999999999999 3.398,-2.758 5.366,-1.7890000000000001 l16.015,8 c1.9769999999999999,0.984 2.773,3.391 1.7890000000000001,5.367 C216.36582425165176,356.6750057768822 214.95182425165177,357.48500577688213 213.49082425165176,357.48500577688213 z" id="svg_186" fill="#e84141" fill-opacity="1"/></g></g></g><g id="svg_187" fill="#e84141" fill-opacity="1"><g id="svg_188" fill="#e84141" fill-opacity="1"><g id="svg_189" fill="#e84141" fill-opacity="1"><path d="M205.57782425165178,317.69300577688216 c-0.10200000000000002,0 -0.19500000000000278,0 -0.2890000000000003,-0.01600000000000033 l-17.843,-1.266 c-2.203,-0.15600000000000044 -3.867,-2.062 -3.7110000000000003,-4.266 c0.15600000000000044,-2.211 2.297,-3.875 4.273,-3.7030000000000003 l17.843,1.266 c2.202,0.15600000000000044 3.866,2.062 3.71,4.266 C209.41282425165176,316.08300577688215 207.65482425165177,317.69300577688216 205.57782425165178,317.69300577688216 z" id="svg_190" fill="#e84141" fill-opacity="1"/></g></g></g><g id="svg_191" fill="#e84141" fill-opacity="1"><g id="svg_192" fill="#e84141" fill-opacity="1"><g id="svg_193" fill="#e84141" fill-opacity="1"><path d="M166.05582425165176,289.61400577688215 c-1.6800000000000006,0 -3.234,-1.062 -3.797,-2.734 c-0.695000000000013,-2.092 0.4380000000000046,-4.357 2.531,-5.061 l16.983,-5.6560000000000015 c2.109,-0.6800000000000119 4.359,0.4380000000000046 5.062,2.531 c0.695000000000013,2.094 -0.4380000000000046,4.359 -2.531,5.062 l-16.983,5.654 C166.89982425165175,289.5520057768822 166.47782425165175,289.61400577688215 166.05582425165176,289.61400577688215 z" id="svg_194" fill="#e84141" fill-opacity="1"/></g></g></g><g id="svg_195" fill="#e84141" fill-opacity="1"><g id="svg_196" fill="#e84141" fill-opacity="1"><g id="svg_197" fill="#e84141" fill-opacity="1"><path d="M109.44982425165176,461.4970057768822 c-14.187,0 -28.076,-2.773 -41.295,-8.25 c-55.004,-22.789 -81.214,-86.09 -58.426,-141.102 c16.787,-40.506 55.965,-66.676 99.814,-66.676 c14.188,0 28.076,2.773 41.295,8.248 c55.005,22.797 81.215,86.098 58.426,141.102 C192.47682425165178,435.32500577688216 153.29882425165175,461.4970057768822 109.44982425165176,461.4970057768822 zM109.54282425165177,253.46800577688217 c-40.607,0 -76.879,24.234 -92.424,61.74 c-21.102,50.941 3.171,109.549 54.098,130.648 c12.242,5.07 25.108,7.641 38.232,7.641 c40.607,0 76.879,-24.232 92.425,-61.738 c21.101,-50.936 -3.172,-109.541 -54.099,-130.65 C135.53382425165177,256.0380057768822 122.66782425165177,253.46800577688217 109.54282425165177,253.46800577688217 z" id="svg_198" fill="#e84141" fill-opacity="1"/></g></g></g><g id="svg_199" fill="#e84141" fill-opacity="1"><g id="svg_200" fill="#e84141" fill-opacity="1"><g id="svg_201" fill="#e84141" fill-opacity="1"><path d="M135.77582425165176,273.1320057768822 c-1.117,0 -2.233,-0.4690000000000003 -3.022,-1.383 c-1.445,-1.6640000000000001 -1.266,-4.195 0.406,-5.641 l13.53,-11.719 c1.6640000000000001,-1.445 4.195,-1.2730000000000001 5.641,0.406 c1.445,1.6640000000000001 1.266,4.195 -0.406,5.641 l-13.531,11.719 C137.63482425165176,272.8120057768822 136.70582425165176,273.1320057768822 135.77582425165176,273.1320057768822 z" id="svg_202" fill="#e84141" fill-opacity="1"/></g></g></g><g id="svg_203" fill="#e84141" fill-opacity="1"><g id="svg_204" fill="#e84141" fill-opacity="1"><g id="svg_205" fill="#e84141" fill-opacity="1"><path d="M441.47382425165176,341.4870057768822 c-0.6020000000000006,0 -1.211,-0.14100000000000001 -1.7890000000000001,-0.4220000000000003 c-1.9769999999999999,-0.984 -2.773,-3.391 -1.7890000000000001,-5.367 l4,-8 c0.992,-1.9769999999999999 3.391,-2.758 5.367,-1.7890000000000001 c1.9769999999999999,0.984 2.7720000000000002,3.391 1.7890000000000001,5.367 l-4,8 C444.34882425165176,340.6750057768822 442.9348242516518,341.4870057768822 441.47382425165176,341.4870057768822 z" id="svg_206" fill="#e84141" fill-opacity="1"/></g></g></g><g id="svg_207" fill="#e84141" fill-opacity="1"><g id="svg_208" fill="#e84141" fill-opacity="1"><g id="svg_209" fill="#e84141" fill-opacity="1"><path d="M414.0208242516518,350.9870057768822 c-2.101,0 -3.858,-1.633 -3.991,-3.75 l-0.547,-8.922 c-0.133,-2.211 1.5390000000000001,-4.109 3.75,-4.242 c2.202,-0.05500000000000011 4.093,1.5470000000000002 4.233,3.742 l0.547,8.922 c0.133,2.211 -1.5390000000000001,4.109 -3.75,4.242 C414.18582425165175,350.9870057768822 414.09982425165174,350.9870057768822 414.0208242516518,350.9870057768822 z" id="svg_210" fill="#e84141" fill-opacity="1"/></g></g></g><g id="svg_211" fill="#e84141" fill-opacity="1"><g id="svg_212" fill="#e84141" fill-opacity="1"><g id="svg_213" fill="#e84141" fill-opacity="1"><path d="M394.99082425165176,372.9390057768822 c-1.2970000000000002,0 -2.5620000000000003,-0.6250000000000092 -3.3360000000000003,-1.7890000000000001 l-4.938,-7.453 c-1.218,-1.844 -0.7100000000000006,-4.32 1.125,-5.547 c1.836,-1.209 4.32,-0.7110000000000006 5.547,1.125 l4.938,7.453 c1.219,1.844 0.7110000000000006,4.32 -1.125,5.547 C396.52182425165176,372.7200057768822 395.7568242516518,372.9390057768822 394.99082425165176,372.9390057768822 z" id="svg_214" fill="#e84141" fill-opacity="1"/></g></g></g><g id="svg_215" fill="#e84141" fill-opacity="1"><g id="svg_216" fill="#e84141" fill-opacity="1"><g id="svg_217" fill="#e84141" fill-opacity="1"><path d="M389.49082425165176,401.4680057768822 c-0.6020000000000006,0 -1.211,-0.133 -1.7810000000000001,-0.4220000000000003 l-7.999,-3.984 c-1.9769999999999999,-0.984 -2.7800000000000002,-3.383 -1.7970000000000002,-5.357 c0.984,-1.9769999999999999 3.391,-2.781 5.359,-1.7970000000000002 l7.999,3.982 c1.9769999999999999,0.984 2.781,3.383 1.7970000000000002,5.359 C392.37382425165174,400.65500577688215 390.95982425165175,401.4680057768822 389.49082425165176,401.4680057768822 z" id="svg_218" fill="#e84141" fill-opacity="1"/></g></g></g><g id="svg_219" fill="#e84141" fill-opacity="1"><g id="svg_220" fill="#e84141" fill-opacity="1"><g id="svg_221" fill="#e84141" fill-opacity="1"><path d="M390.0688242516518,429.48200577688215 c-2.102,0 -3.858,-1.6230000000000002 -3.991,-3.748 c-0.14100000000000001,-2.203 1.538,-4.102 3.741,-4.242 l8.922,-0.562 c2.422,-0.05500000000000011 4.102,1.5390000000000001 4.242,3.742 s-1.5390000000000001,4.102 -3.742,4.242 l-8.922,0.561 C390.2328242516518,429.48200577688215 390.14682425165176,429.48200577688215 390.0688242516518,429.48200577688215 z" id="svg_222" fill="#e84141" fill-opacity="1"/></g></g></g><g id="svg_223" fill="#e84141" fill-opacity="1"><g id="svg_224" fill="#e84141" fill-opacity="1"><g id="svg_225" fill="#e84141" fill-opacity="1"><path d="M413.49082425165176,452.9030057768822 c-1.2890000000000001,0 -2.5620000000000003,-0.6250000000000092 -3.3280000000000003,-1.7810000000000001 c-1.227,-1.844 -0.7270000000000006,-4.328 1.117,-5.547 l7.452,-4.953 c1.82,-1.219 4.312,-0.7420000000000092 5.538,1.109 c1.227,1.844 0.7270000000000006,4.328 -1.117,5.547 l-7.452,4.953 C415.0208242516518,452.6850057768821 414.25582425165175,452.9030057768822 413.49082425165176,452.9030057768822 z" id="svg_226" fill="#e84141" fill-opacity="1"/></g></g></g><g id="svg_227" fill="#e84141" fill-opacity="1"><g id="svg_228" fill="#e84141" fill-opacity="1"><g id="svg_229" fill="#e84141" fill-opacity="1"><path d="M445.48882425165175,461.4660057768822 c-0.6020000000000006,0 -1.211,-0.133 -1.7810000000000001,-0.4220000000000003 c-1.9769999999999999,-0.984 -2.781,-3.375 -1.7970000000000002,-5.359 l3.984,-8.016 c0.977,-1.984 3.391,-2.781 5.358,-1.7970000000000002 c1.9769999999999999,0.984 2.781,3.375 1.7970000000000002,5.359 l-3.983,8.016 C448.3718242516518,460.6530057768822 446.95782425165174,461.4660057768822 445.48882425165175,461.4660057768822 z" id="svg_230" fill="#e84141" fill-opacity="1"/></g></g></g><g id="svg_231" fill="#e84141" fill-opacity="1"><g id="svg_232" fill="#e84141" fill-opacity="1"><g id="svg_233" fill="#e84141" fill-opacity="1"><path d="M477.48682425165174,452.8880057768822 c-2.102,0 -3.859,-1.625 -3.992,-3.75 l-0.562,-8.938 c-0.14100000000000001,-2.203 1.5390000000000001,-4.102 3.742,-4.242 c2.406,-0.04700000000000011 4.102,1.5390000000000001 4.242,3.742 l0.562,8.938 c0.14100000000000001,2.203 -1.5390000000000001,4.102 -3.742,4.242 C477.6508242516518,452.8880057768822 477.56482425165177,452.8880057768822 477.48682425165174,452.8880057768822 z" id="svg_234" fill="#e84141" fill-opacity="1"/></g></g></g><g id="svg_235" fill="#e84141" fill-opacity="1"><g id="svg_236" fill="#e84141" fill-opacity="1"><g id="svg_237" fill="#e84141" fill-opacity="1"><path d="M500.90682425165176,429.45800577688215 c-1.2890000000000001,0 -2.5620000000000003,-0.6310000000000092 -3.3360000000000003,-1.787 l-4.952,-7.461 c-1.219,-1.836 -0.7190000000000006,-4.32 1.125,-5.539 c1.819,-1.227 4.312,-0.7340000000000036 5.546,1.117 l4.953,7.461 c1.219,1.844 0.7190000000000006,4.32 -1.125,5.547 C502.43782425165176,429.2490057768822 501.6728242516518,429.45800577688215 500.90682425165176,429.45800577688215 z" id="svg_238" fill="#e84141" fill-opacity="1"/></g></g></g><g id="svg_239" fill="#e84141" fill-opacity="1"><g id="svg_240" fill="#e84141" fill-opacity="1"><g id="svg_241" fill="#e84141" fill-opacity="1"><path d="M509.46982425165174,397.4520057768822 c-0.6020000000000006,0 -1.211,-0.133 -1.7810000000000001,-0.4220000000000003 l-8.016,-3.982 c-1.9769999999999999,-0.984 -2.781,-3.375 -1.7970000000000002,-5.359 s3.398,-2.781 5.359,-1.7970000000000002 l8.016,3.984 c1.9769999999999999,0.984 2.781,3.375 1.7970000000000002,5.357 C512.3518242516518,396.64000577688216 510.93782425165176,397.4520057768822 509.46982425165174,397.4520057768822 z" id="svg_242" fill="#e84141" fill-opacity="1"/></g></g></g><g id="svg_243" fill="#e84141" fill-opacity="1"><g id="svg_244" fill="#e84141" fill-opacity="1"><g id="svg_245" fill="#e84141" fill-opacity="1"><path d="M491.95482425165176,366.0170057768822 c-2.102,0 -3.859,-1.625 -3.992,-3.75 c-0.14100000000000001,-2.203 1.5390000000000001,-4.102 3.742,-4.242 l8.937,-0.562 c2.414,-0.12300000000000012 4.102,1.5390000000000001 4.242,3.742 s-1.5390000000000001,4.102 -3.742,4.242 l-8.937,0.562 C492.11882425165174,366.0170057768822 492.0328242516518,366.0170057768822 491.95482425165176,366.0170057768822 z" id="svg_246" fill="#e84141" fill-opacity="1"/></g></g></g><g id="svg_247" fill="#e84141" fill-opacity="1"><g id="svg_248" fill="#e84141" fill-opacity="1"><g id="svg_249" fill="#e84141" fill-opacity="1"><path d="M445.40282425165174,461.47400577688217 c-11.867,0 -23.608,-3.148 -33.943,-9.117 c-32.46,-18.75 -43.623,-60.402 -24.883,-92.863 c12.109,-20.99 34.71,-34.021 58.967,-34.021 c11.858,0 23.584,3.141 33.912,9.094 c15.732,9.094 26.982,23.756 31.693,41.311 c4.703,17.545 2.297,35.873 -6.797,51.592 C492.23582425165176,448.44300577688216 469.6508242516518,461.47400577688217 445.40282425165174,461.47400577688217 zM445.54382425165176,333.47200577688216 c-21.414,0 -41.35,11.5 -52.045,30.021 c-16.529,28.641000000000002 -6.68,65.396 21.96,81.926 c9.124,5.273 19.476,8.055 29.944,8.055 c21.396,0 41.333,-11.5 52.027,-30.006 c8.016,-13.875 10.141,-30.039 5.992,-45.521 c-4.156,-15.492 -14.085,-28.428 -27.967,-36.443 C466.34682425165175,336.2450057768822 456.00382425165174,333.47200577688216 445.54382425165176,333.47200577688216 z" id="svg_250" fill="#e84141" fill-opacity="1"/></g></g></g><g id="svg_251" fill="#e84141" fill-opacity="1"><g id="svg_252" fill="#e84141" fill-opacity="1"><g id="svg_253" fill="#e84141" fill-opacity="1"><path d="M470.00282425165176,346.9870057768822 c-1.2890000000000001,0 -2.5620000000000003,-0.6250000000000092 -3.3280000000000003,-1.7810000000000001 c-1.227,-1.844 -0.7270000000000006,-4.328 1.117,-5.547 l7.453,-4.953 c1.82,-1.219 4.312,-0.7340000000000036 5.539,1.109 s0.7270000000000006,4.328 -1.117,5.547 l-7.453,4.953 C471.53382425165177,346.7690057768822 470.7688242516518,346.9870057768822 470.00282425165176,346.9870057768822 z" id="svg_254" fill="#e84141" fill-opacity="1"/></g></g></g><g id="svg_255" fill="#e84141" fill-opacity="1"><g id="svg_256" fill="#e84141" fill-opacity="1"><g id="svg_257" fill="#e84141" fill-opacity="1"><path d="M469.47182425165175,245.49300577688217 c-2.211,0 -4,-1.7890000000000001 -4,-4 c0,-6.617 -5.383,-12 -11.999,-12 c-2.211,0 -3.999,-1.7890000000000001 -3.999,-4 s1.788,-4 3.999,-4 c11.03,0 19.999,8.969 19.999,20 C473.47182425165175,243.70400577688218 471.68282425165177,245.49300577688217 469.47182425165175,245.49300577688217 z" id="svg_258" fill="#e84141" fill-opacity="1"/></g></g></g><g id="svg_259" fill="#e84141" fill-opacity="1"><g id="svg_260" fill="#e84141" fill-opacity="1"><g id="svg_261" fill="#e84141" fill-opacity="1"><path d="M461.47182425165175,229.49300577688217 h-263.98 c-2.21,0 -3.999,-1.7890000000000001 -3.999,-4 s1.7890000000000001,-4 3.999,-4 h263.98 c2.211,0 4,1.7890000000000001 4,4 S463.68282425165177,229.49300577688217 461.47182425165175,229.49300577688217 z" id="svg_262" fill="#e84141" fill-opacity="1"/></g></g></g><g id="svg_263" fill="#e84141" fill-opacity="1"><g id="svg_264" fill="#e84141" fill-opacity="1"><g id="svg_265" fill="#e84141" fill-opacity="1"><g id="svg_266" fill="#e84141" fill-opacity="1"><path d="M276.59982425165174,213.49300577688217 c-0.03900000000000011,0 -0.09400000000000219,0.008000000000000076 -0.15600000000000044,0 h-86.943 c-2.211,0 -4,-1.787 -4,-3.998 V89.50100577688217 c0,-2.211 1.7890000000000001,-4 4,-4 h73.749 c2.039,0 3.75,1.5310000000000001 3.977,3.5620000000000003 l13.068,118.901 c0.203,0.4690000000000003 0.3050000000000003,0.984 0.3050000000000003,1.5310000000000001 C280.59882425165176,211.70600577688217 278.8098242516518,213.49300577688217 276.59982425165174,213.49300577688217 zM193.49982425165177,205.49500577688218 h78.482 L259.6628242516518,93.50100577688217 h-66.163 V205.49500577688218 z" id="svg_267" fill="#e84141" fill-opacity="1"/></g></g></g></g><g id="svg_268" fill="#e84141" fill-opacity="1"><g id="svg_269" fill="#e84141" fill-opacity="1"><g id="svg_270" fill="#e84141" fill-opacity="1"><path d="M349.4778242516518,221.49300577688217 c-2.211,0 -4,-1.7890000000000001 -4,-4 V193.49500577688218 c0,-2.211 1.7890000000000001,-4 4,-4 c2.21,0 3.999,1.7890000000000001 3.999,4 v23.999 C353.47682425165175,219.70400577688218 351.68782425165176,221.49300577688217 349.4778242516518,221.49300577688217 z" id="svg_271" fill="#e84141" fill-opacity="1"/></g></g></g><g id="svg_272" fill="#e84141" fill-opacity="1"><g id="svg_273" fill="#e84141" fill-opacity="1"><g id="svg_274" fill="#e84141" fill-opacity="1"><path d="M381.47682425165175,221.49300577688217 c-2.211,0 -3.999,-1.7890000000000001 -3.999,-4 V193.49500577688218 c0,-2.211 1.788,-4 3.999,-4 s4,1.7890000000000001 4,4 v23.999 C385.47682425165175,219.70400577688218 383.6868242516518,221.49300577688217 381.47682425165175,221.49300577688217 z" id="svg_275" fill="#e84141" fill-opacity="1"/></g></g></g><g id="svg_276" fill="#e84141" fill-opacity="1"><g id="svg_277" fill="#e84141" fill-opacity="1"><g id="svg_278" fill="#e84141" fill-opacity="1"><path d="M349.4778242516518,197.49500577688218 c-2.211,0 -4,-1.7890000000000001 -4,-4 c0,-6.617 5.382,-11.999 11.999,-11.999 c2.211,0 4,1.7890000000000001 4,4 c0,2.21 -1.7890000000000001,3.999 -4,3.999 c-2.203,0 -4,1.7970000000000002 -4,4 C353.47682425165175,195.70600577688217 351.68782425165176,197.49500577688218 349.4778242516518,197.49500577688218 z" id="svg_279" fill="#e84141" fill-opacity="1"/></g></g></g><g id="svg_280" fill="#e84141" fill-opacity="1"><g id="svg_281" fill="#e84141" fill-opacity="1"><g id="svg_282" fill="#e84141" fill-opacity="1"><path d="M381.47682425165175,197.49500577688218 c-2.211,0 -3.999,-1.7890000000000001 -3.999,-4 c0,-2.203 -1.7970000000000002,-4 -4,-4 c-2.211,0 -4,-1.7890000000000001 -4,-3.999 c0,-2.211 1.7890000000000001,-4 4,-4 c6.616,0 11.999,5.382 11.999,11.999 C385.47682425165175,195.70600577688217 383.6868242516518,197.49500577688218 381.47682425165175,197.49500577688218 z" id="svg_283" fill="#e84141" fill-opacity="1"/></g></g></g><g id="svg_284" fill="#e84141" fill-opacity="1"><g id="svg_285" fill="#e84141" fill-opacity="1"><g id="svg_286" fill="#e84141" fill-opacity="1"><path d="M373.47682425165175,189.49500577688218 h-16 c-2.211,0 -4,-1.7890000000000001 -4,-3.999 c0,-2.211 1.7890000000000001,-4 4,-4 h16 c2.211,0 4,1.7890000000000001 4,4 C377.47682425165175,187.70600577688217 375.68782425165176,189.49500577688218 373.47682425165175,189.49500577688218 z" id="svg_287" fill="#e84141" fill-opacity="1"/></g></g></g><g id="svg_288" fill="#e84141" fill-opacity="1"><g id="svg_289" fill="#e84141" fill-opacity="1"><g id="svg_290" fill="#e84141" fill-opacity="1"><path d="M365.47682425165175,189.49500577688218 c-2.211,0 -4,-1.7890000000000001 -4,-3.999 v-55.997 c0,-2.211 1.7890000000000001,-4 4,-4 s4,1.7890000000000001 4,4 v55.997 C369.47682425165175,187.70600577688217 367.68782425165176,189.49500577688218 365.47682425165175,189.49500577688218 z" id="svg_291" fill="#e84141" fill-opacity="1"/></g></g></g><g id="svg_292" fill="#e84141" fill-opacity="1"><g id="svg_293" fill="#e84141" fill-opacity="1"><g id="svg_294" fill="#e84141" fill-opacity="1"><path d="M365.47682425165175,133.49900577688217 c-2.211,0 -4,-1.7890000000000001 -4,-4 c0,-9.047 -2.766,-11.812 -4.219,-12.008 c-2.211,0 -3.891,-1.7890000000000001 -3.891,-3.991 c0,-2.219 1.8980000000000001,-4 4.109,-4 c0.4920000000000003,0 12,0.22700000000000278 12,19.999 C369.47682425165175,131.71000577688218 367.68782425165176,133.49900577688217 365.47682425165175,133.49900577688217 z" id="svg_295" fill="#e84141" fill-opacity="1"/></g></g></g><g id="svg_296" fill="#e84141" fill-opacity="1"><g id="svg_297" fill="#e84141" fill-opacity="1"><g id="svg_298" fill="#e84141" fill-opacity="1"><path d="M293.48082425165177,293.48900577688215 c-2.211,0 -4,-1.7890000000000001 -4,-4 v-47.996 c0,-2.211 1.7890000000000001,-4 4,-4 s4,1.7890000000000001 4,4 v47.996 C297.48082425165177,291.70000577688216 295.6918242516518,293.48900577688215 293.48082425165177,293.48900577688215 z" id="svg_299" fill="#e84141" fill-opacity="1"/></g></g></g><g id="svg_300" fill="#e84141" fill-opacity="1"><g id="svg_301" fill="#e84141" fill-opacity="1"><g id="svg_302" fill="#e84141" fill-opacity="1"><path d="M229.49082425165176,197.49500577688218 c-1.023,0 -2.047,-0.3910000000000052 -2.8280000000000003,-1.172 c-1.562,-1.562 -1.562,-4.094 0,-5.6560000000000015 l23.998,-23.998 c1.562,-1.562 4.094,-1.562 5.6560000000000015,0 c1.562,1.562 1.562,4.094 0,5.6560000000000015 l-23.998,23.998 C231.53782425165176,197.10400577688216 230.51382425165176,197.49500577688218 229.49082425165176,197.49500577688218 z" id="svg_303" fill="#e84141" fill-opacity="1"/></g></g></g><g id="svg_304" fill="#e84141" fill-opacity="1"><g id="svg_305" fill="#e84141" fill-opacity="1"><g id="svg_306" fill="#e84141" fill-opacity="1"><path d="M245.48882425165178,197.49500577688218 c-1.023,0 -2.047,-0.3910000000000052 -2.8280000000000003,-1.172 c-1.562,-1.562 -1.562,-4.094 0,-5.6560000000000015 l8,-7.999 c1.562,-1.562 4.094,-1.562 5.6560000000000015,0 c1.562,1.562 1.562,4.093 0,5.655 l-8,8 C247.53582425165177,197.10400577688216 246.51182425165177,197.49500577688218 245.48882425165178,197.49500577688218 z" id="svg_307" fill="#e84141" fill-opacity="1"/></g></g></g><g id="svg_308" fill="#e84141" fill-opacity="1"><g id="svg_309" fill="#e84141" fill-opacity="1"><g id="svg_310" fill="#e84141" fill-opacity="1"><path d="M117.49682425165176,197.49500577688218 c-1.023,0 -2.047,-0.3910000000000052 -2.8280000000000003,-1.172 c-1.562,-1.562 -1.562,-4.094 0,-5.6560000000000015 l23.998,-23.998 c1.562,-1.562 4.094,-1.562 5.6560000000000015,0 s1.562,4.094 0,5.6560000000000015 l-23.998,23.998 C119.54282425165177,197.10400577688216 118.51982425165177,197.49500577688218 117.49682425165176,197.49500577688218 z" id="svg_311" fill="#e84141" fill-opacity="1"/></g></g></g><g id="svg_312" fill="#e84141" fill-opacity="1"><g id="svg_313" fill="#e84141" fill-opacity="1"><g id="svg_314" fill="#e84141" fill-opacity="1"><path d="M133.49582425165175,197.49500577688218 c-1.023,0 -2.047,-0.3910000000000052 -2.8280000000000003,-1.172 c-1.562,-1.562 -1.562,-4.094 0,-5.6560000000000015 l7.999,-7.999 c1.562,-1.562 4.094,-1.562 5.6560000000000015,0 s1.562,4.093 0,5.655 l-8,8 C135.54082425165177,197.10400577688216 134.51782425165177,197.49500577688218 133.49582425165175,197.49500577688218 z" id="svg_315" fill="#e84141" fill-opacity="1"/></g></g></g><g id="svg_316" fill="#e84141" fill-opacity="1"><g id="svg_317" fill="#e84141" fill-opacity="1"><g id="svg_318" fill="#e84141" fill-opacity="1"><g id="svg_319" fill="#e84141" fill-opacity="1"><path d="M449.47382425165176,285.48900577688215 c-8.82,0 -16,-7.17 -16,-15.998 s7.18,-16 16,-16 c2.21,0 3.999,1.7890000000000001 3.999,4 s-1.7890000000000001,4 -3.999,4 c-4.414,0 -8,3.5940000000000003 -8,8 s3.5860000000000003,8 8,8 c2.21,0 3.999,1.7890000000000001 3.999,4 S451.68382425165174,285.48900577688215 449.47382425165176,285.48900577688215 z" id="svg_320" fill="#e84141" fill-opacity="1"/></g></g></g><g id="svg_321" fill="#e84141" fill-opacity="1"><g id="svg_322" fill="#e84141" fill-opacity="1"><g id="svg_323" fill="#e84141" fill-opacity="1"><path d="M453.4728242516518,285.48900577688215 c-2.211,0 -3.999,-1.787 -3.999,-3.998 v-24 c0,-2.211 1.788,-4 3.999,-4 s4,1.7890000000000001 4,4 v24 C457.4728242516518,283.7020057768822 455.68382425165174,285.48900577688215 453.4728242516518,285.48900577688215 z" id="svg_324" fill="#e84141" fill-opacity="1"/></g></g></g><g id="svg_325" fill="#e84141" fill-opacity="1"><g id="svg_326" fill="#e84141" fill-opacity="1"><g id="svg_327" fill="#e84141" fill-opacity="1"><path d="M453.4728242516518,261.49100577688216 h-3.999 c-2.211,0 -4,-1.7890000000000001 -4,-4 s1.7890000000000001,-4 4,-4 h3.999 c2.211,0 4,1.7890000000000001 4,4 S455.68382425165174,261.49100577688216 453.4728242516518,261.49100577688216 z" id="svg_328" fill="#e84141" fill-opacity="1"/></g></g></g><g id="svg_329" fill="#e84141" fill-opacity="1"><g id="svg_330" fill="#e84141" fill-opacity="1"><g id="svg_331" fill="#e84141" fill-opacity="1"><path d="M453.4728242516518,285.48900577688215 h-3.999 c-2.211,0 -4,-1.787 -4,-3.998 s1.7890000000000001,-4 4,-4 h3.999 c2.211,0 4,1.7890000000000001 4,4 S455.68382425165174,285.48900577688215 453.4728242516518,285.48900577688215 z" id="svg_332" fill="#e84141" fill-opacity="1"/></g></g></g></g><g id="svg_333" fill="#e84141" fill-opacity="1"><g id="svg_334" fill="#e84141" fill-opacity="1"><g id="svg_335" fill="#e84141" fill-opacity="1"><path d="M445.47382425165176,301.48900577688215 c-2.211,0 -4,-1.7890000000000001 -4,-4 v-16.693 c0,-2.211 1.7890000000000001,-4 4,-4 s4,1.7890000000000001 4,4 v16.693 C449.47382425165176,299.70000577688216 447.6848242516518,301.48900577688215 445.47382425165176,301.48900577688215 z" id="svg_336" fill="#e84141" fill-opacity="1"/></g></g></g><g id="svg_337" fill="#e84141" fill-opacity="1"><g id="svg_338" fill="#e84141" fill-opacity="1"><g id="svg_339" fill="#e84141" fill-opacity="1"><path d="M333.47882425165176,253.49100577688216 c-1.023,0 -2.047,-0.3910000000000052 -2.8280000000000003,-1.172 c-1.562,-1.562 -1.562,-4.092 0,-5.654 l8,-8 c1.562,-1.562 4.093,-1.562 5.655,0 s1.562,4.094 0,5.6560000000000015 l-7.999,7.998 C335.5258242516518,253.10100577688218 334.50282425165176,253.49100577688216 333.47882425165176,253.49100577688216 z" id="svg_340" fill="#e84141" fill-opacity="1"/></g></g></g><g id="svg_341" fill="#e84141" fill-opacity="1"><g id="svg_342" fill="#e84141" fill-opacity="1"><g id="svg_343" fill="#e84141" fill-opacity="1"><path d="M357.47682425165175,253.49100577688216 c-1.023,0 -2.047,-0.3910000000000052 -2.8280000000000003,-1.172 c-1.562,-1.562 -1.562,-4.092 0,-5.654 l8,-8 c1.562,-1.562 4.094,-1.562 5.6560000000000015,0 s1.562,4.094 0,5.6560000000000015 l-8,7.998 C359.5238242516518,253.10100577688218 358.50082425165175,253.49100577688216 357.47682425165175,253.49100577688216 z" id="svg_344" fill="#e84141" fill-opacity="1"/></g></g></g><g id="svg_345" fill="#e84141" fill-opacity="1"><g id="svg_346" fill="#e84141" fill-opacity="1"><g id="svg_347" fill="#e84141" fill-opacity="1"><path d="M381.47682425165175,253.49100577688216 c-1.023,0 -2.047,-0.3910000000000052 -2.8280000000000003,-1.172 c-1.562,-1.562 -1.562,-4.092 0,-5.654 l7.999,-8 c1.562,-1.562 4.094,-1.562 5.6560000000000015,0 s1.562,4.094 0,5.6560000000000015 l-7.999,7.998 C383.52282425165174,253.10100577688218 382.4998242516518,253.49100577688216 381.47682425165175,253.49100577688216 z" id="svg_348" fill="#e84141" fill-opacity="1"/></g></g></g><g id="svg_349" fill="#e84141" fill-opacity="1"><g id="svg_350" fill="#e84141" fill-opacity="1"><g id="svg_351" fill="#e84141" fill-opacity="1"><path d="M85.49782425165176,69.50200577688217 c-2.211,0 -4,-1.788 -4,-3.999 c0,-6.617 5.383,-12 11.999,-12 c2.211,0 4,1.7890000000000001 4,4 s-1.7890000000000001,4 -4,4 c-2.203,0 -4,1.7970000000000002 -4,4 C89.49782425165176,67.71300577688217 87.70882425165178,69.50200577688217 85.49782425165176,69.50200577688217 z" id="svg_352" fill="#e84141" fill-opacity="1"/></g></g></g><g id="svg_353" fill="#e84141" fill-opacity="1"><g id="svg_354" fill="#e84141" fill-opacity="1"><g id="svg_355" fill="#e84141" fill-opacity="1"><path d="M269.48182425165174,69.50200577688217 c-2.21,0 -3.999,-1.788 -3.999,-3.999 c0,-2.203 -1.7970000000000002,-4 -4,-4 c-2.211,0 -3.996,-1.7890000000000001 -3.996,-4 s1.7850000000000001,-4 3.996,-4 c6.617,0 11.999,5.383 11.999,12 C273.48182425165174,67.71300577688217 271.69282425165176,69.50200577688217 269.48182425165174,69.50200577688217 z" id="svg_356" fill="#e84141" fill-opacity="1"/></g></g></g><g id="svg_357" fill="#e84141" fill-opacity="1"><g id="svg_358" fill="#e84141" fill-opacity="1"><g id="svg_359" fill="#e84141" fill-opacity="1"><path d="M260.2328242516518,61.50300577688217 H93.49782425165176 c-2.211,0 -4,-1.7890000000000001 -4,-4 s1.7890000000000001,-4 4,-4 h166.736 c2.211,0 4,1.7890000000000001 4,4 S262.4438242516518,61.50300577688217 260.2328242516518,61.50300577688217 z" id="svg_360" fill="#e84141" fill-opacity="1"/></g></g></g><g id="svg_361" fill="#e84141" fill-opacity="1"><g id="svg_362" fill="#e84141" fill-opacity="1"><g id="svg_363" fill="#e84141" fill-opacity="1"><path d="M381.47682425165175,317.48900577688215 h-39.997 c-2.211,0 -4,-1.7890000000000001 -4,-4 s1.7890000000000001,-4 4,-4 h39.997 c2.211,0 4,1.7890000000000001 4,4 S383.6868242516518,317.48900577688215 381.47682425165175,317.48900577688215 z" id="svg_364" fill="#e84141" fill-opacity="1"/></g></g></g><g id="svg_365" fill="#e84141" fill-opacity="1"><g id="svg_366" fill="#e84141" fill-opacity="1"><g id="svg_367" fill="#e84141" fill-opacity="1"><path d="M317.47882425165176,341.4870057768822 c-1.023,0 -2.047,-0.3910000000000052 -2.8280000000000003,-1.172 c-1.562,-1.562 -1.562,-4.094 0,-5.6560000000000015 l24,-23.998 c1.562,-1.562 4.093,-1.562 5.655,0 s1.562,4.094 0,5.6560000000000015 l-23.999,23.998 C319.5258242516518,341.09700577688216 318.50282425165176,341.4870057768822 317.47882425165176,341.4870057768822 z" id="svg_368" fill="#e84141" fill-opacity="1"/></g></g></g><g id="svg_369" fill="#e84141" fill-opacity="1"><g id="svg_370" fill="#e84141" fill-opacity="1"><g id="svg_371" fill="#e84141" fill-opacity="1"><path d="M357.47682425165175,341.4870057768822 h-39.998 c-2.211,0 -3.999,-1.7890000000000001 -3.999,-4 s1.788,-4 3.999,-4 h39.998 c2.211,0 4,1.7890000000000001 4,4 S359.68782425165176,341.4870057768822 357.47682425165175,341.4870057768822 z" id="svg_372" fill="#e84141" fill-opacity="1"/></g></g></g></g></g></svg>