<svg xmlns="http://www.w3.org/2000/svg" xmlns:xlink="http://www.w3.org/1999/xlink" version="1.1" enable-background="new 0 0 100 100" xml:space="preserve" width="100" height="100"><rect id="backgroundrect" width="100%" height="100%" x="0" y="0" fill="none" stroke="none" class="" style=""/><g class="currentLayer" style=""><title>Layer 1</title><path d="M72.8,49.6c-2.9,2.9-6.8,4.6-10.9,4.6c0,0,0,0,0,0c-0.5,0-1-0.4-1-1c0-0.6,0.4-1,1-1c3.6,0,7-1.5,9.5-4  c2.5-2.6,3.9-6,3.9-9.6c-0.1-7.4-6.1-13.4-13.5-13.4c0,0-0.1,0-0.1,0c-7.4,0.1-13.5,6.2-13.4,13.6c0,0.6-0.4,1-1,1c0,0,0,0,0,0  c-0.5,0-1-0.4-1-1c-0.1-8.5,6.8-15.6,15.4-15.6c0,0,0.1,0,0.1,0c8.5,0,15.4,6.9,15.5,15.4C77.3,42.7,75.7,46.6,72.8,49.6z   M98.9,29.5c0.4-1,0.4-2.2,0-3.2l-2.1-5C96,19,93.5,18,91.3,18.9l-3.9,1.6c-2.1-2.9-4.6-5.4-7.5-7.5l1.6-3.9c0.4-1,0.4-2.2,0-3.2  c-0.4-1-1.2-1.9-2.3-2.3l-5-2.1c-1-0.4-2.2-0.4-3.2,0c-1,0.4-1.9,1.2-2.3,2.3l-1.6,3.9c-3.5-0.6-7.1-0.6-10.6,0l-1.6-3.9  c-0.4-1-1.2-1.9-2.3-2.3c-1-0.4-2.2-0.4-3.2,0l-5,2.1c-1,0.4-1.9,1.2-2.3,2.3c-0.4,1-0.4,2.2,0,3.2l1.6,3.9  c-2.9,2.1-5.4,4.6-7.5,7.5l-3.9-1.6c-2.2-0.9-4.6,0.1-5.5,2.3l-2.1,5c-0.9,2.2,0.1,4.6,2.3,5.5l4.6,1.9c0.5,0.2,1.1,0,1.3-0.5  c0.2-0.5,0-1.1-0.5-1.3l-4.6-1.9c-1.1-0.5-1.7-1.8-1.2-2.9l2.1-5c0.2-0.6,0.7-1,1.2-1.2c0.6-0.2,1.2-0.2,1.7,0l4.6,1.9  c0.4,0.2,0.9,0,1.2-0.4c2.2-3.2,4.9-6,8.1-8.1c0.4-0.3,0.6-0.8,0.4-1.2l-1.9-4.6c-0.2-0.6-0.2-1.2,0-1.7c0.2-0.6,0.7-1,1.2-1.2  l5-2.1c0.6-0.2,1.2-0.2,1.7,0c0.6,0.2,1,0.7,1.2,1.2l1.9,4.6c0.2,0.4,0.6,0.7,1.1,0.6c3.8-0.8,7.7-0.8,11.5,0  c0.5,0.1,0.9-0.2,1.1-0.6l1.9-4.6c0.2-0.6,0.7-1,1.2-1.2c0.6-0.2,1.2-0.2,1.7,0l5,2.1c0.6,0.2,1,0.7,1.2,1.2s0.2,1.2,0,1.7L77.8,13  c-0.2,0.4,0,0.9,0.4,1.2c3.2,2.2,6,4.9,8.1,8.1c0.3,0.4,0.8,0.6,1.2,0.4l4.6-1.9c1.1-0.5,2.5,0.1,2.9,1.2l2.1,5  c0.2,0.6,0.2,1.2,0,1.7c-0.2,0.6-0.7,1-1.2,1.2l-4.6,1.9c-0.4,0.2-0.7,0.7-0.6,1.1c0.8,3.8,0.8,7.7,0,11.5c-0.1,0.5,0.2,0.9,0.6,1.1  l4.6,1.9c1.1,0.5,1.7,1.8,1.2,2.9l-2.1,5c-0.5,1.1-1.8,1.7-2.9,1.2l-4.6-1.9c-0.4-0.2-0.9,0-1.2,0.4c-2.2,3.2-4.9,6-8.1,8.1  c-0.4,0.3-0.6,0.8-0.4,1.2l1.9,4.6c0.2,0.6,0.2,1.2,0,1.7c-0.2,0.6-0.7,1-1.2,1.2l-5,2.1c-0.6,0.2-1.2,0.2-1.7,0  c-0.6-0.2-1-0.7-1.2-1.2l-1.9-4.6c-0.2-0.5-0.8-0.8-1.3-0.5c-0.5,0.2-0.8,0.8-0.5,1.3l1.9,4.6c0.4,1,1.2,1.9,2.3,2.3  c0.5,0.2,1.1,0.3,1.6,0.3c0.5,0,1.1-0.1,1.6-0.3l5-2.1c1-0.4,1.9-1.2,2.3-2.3c0.4-1,0.4-2.2,0-3.2l-1.6-3.9c2.9-2.1,5.4-4.6,7.5-7.5  l3.9,1.6c2.2,0.9,4.6-0.1,5.5-2.3l2.1-5c0.9-2.2-0.1-4.6-2.3-5.5L92.8,44c0.6-3.5,0.6-7.1,0-10.6l3.9-1.6  C97.7,31.3,98.5,30.5,98.9,29.5z M18.4,70.1c0-6.1,5-11,11-11s11,4.9,11,11s-5,11-11,11S18.4,76.2,18.4,70.1z M20.4,70.1  c0,5,4.1,9,9,9s9-4.1,9-9s-4.1-9-9-9S20.4,65.1,20.4,70.1z M0.7,72.1v-4c0-1.8,1.5-3.4,3.4-3.4h2.8c0.6-2.4,1.5-4.7,2.8-6.8l-2-2  c-1.3-1.3-1.3-3.4,0-4.7l2.8-2.8c1.3-1.3,3.5-1.3,4.7,0l2,2c2.1-1.3,4.4-2.3,6.8-2.8v-2.8c0-1.8,1.5-3.4,3.4-3.4h4  c1.8,0,3.4,1.5,3.4,3.4v2.8c2.4,0.6,4.7,1.5,6.8,2.8l2-2c1.3-1.3,3.5-1.3,4.7,0l2.8,2.8c1.3,1.3,1.3,3.4,0,4.7l-2,2  c1.3,2.1,2.3,4.4,2.8,6.8h2.8c1.8,0,3.4,1.5,3.4,3.4v4c0,1.8-1.5,3.4-3.4,3.4H52c-0.6,2.4-1.5,4.7-2.8,6.8l2,2c0.6,0.6,1,1.5,1,2.4  s-0.3,1.7-1,2.4l-2.8,2.8c-1.3,1.3-3.5,1.3-4.7,0l-2-2c-2.1,1.3-4.4,2.3-6.8,2.8v2.8c0,1.8-1.5,3.4-3.4,3.4h-4  c-1.8,0-3.4-1.5-3.4-3.4v-2.8c-2.4-0.6-4.7-1.5-6.8-2.8l-2,2c-1.3,1.3-3.5,1.3-4.7,0L7.7,89c-0.6-0.6-1-1.5-1-2.4s0.3-1.7,1-2.4l2-2  c-1.3-2.1-2.3-4.4-2.8-6.8H4.1C2.2,75.4,0.7,73.9,0.7,72.1z M2.7,72.1c0,0.7,0.6,1.4,1.4,1.4h3.6c0.5,0,0.9,0.3,1,0.8  c0.5,2.7,1.6,5.3,3.1,7.6c0.3,0.4,0.2,0.9-0.1,1.3l-2.6,2.6c-0.5,0.5-0.5,1.4,0,1.9l2.8,2.8c0.5,0.5,1.4,0.5,1.9,0l2.6-2.6  c0.2-0.2,0.4-0.3,0.7-0.3c0.2,0,0.4,0.1,0.6,0.2c2.3,1.5,4.9,2.6,7.6,3.1c0.5,0.1,0.8,0.5,0.8,1v3.6c0,0.7,0.6,1.4,1.4,1.4h4  c0.7,0,1.4-0.6,1.4-1.4v-3.6c0-0.5,0.3-0.9,0.8-1c2.7-0.5,5.3-1.6,7.6-3.1c0.4-0.3,0.9-0.2,1.3,0.1l2.6,2.6c0.5,0.5,1.4,0.5,1.9,0  l2.8-2.8c0.5-0.5,0.5-1.4,0-1.9l-2.6-2.6c-0.3-0.3-0.4-0.9-0.1-1.3c1.5-2.3,2.6-4.9,3.1-7.6c0.1-0.5,0.5-0.8,1-0.8h3.6  c0.7,0,1.4-0.6,1.4-1.4v-4c0-0.7-0.6-1.4-1.4-1.4h-3.6c-0.5,0-0.9-0.3-1-0.8c-0.5-2.7-1.6-5.3-3.1-7.6c-0.3-0.4-0.2-0.9,0.1-1.3  l2.6-2.6c0.5-0.5,0.5-1.4,0-1.9l-2.8-2.8c-0.5-0.5-1.4-0.5-1.9,0l-2.6,2.6c-0.3,0.3-0.9,0.4-1.3,0.1c-2.3-1.5-4.9-2.6-7.6-3.1  c-0.5-0.1-0.8-0.5-0.8-1v-3.6c0-0.7-0.6-1.4-1.4-1.4h-4c-0.7,0-1.4,0.6-1.4,1.4v3.6c0,0.5-0.3,0.9-0.8,1c-2.7,0.5-5.3,1.6-7.6,3.1  c-0.4,0.3-0.9,0.2-1.3-0.1l-2.6-2.6c-0.5-0.5-1.4-0.5-1.9,0l-2.8,2.8c-0.5,0.5-0.5,1.4,0,1.9l2.6,2.6c0.3,0.3,0.4,0.9,0.1,1.3  c-1.5,2.3-2.6,4.9-3.1,7.6c-0.1,0.5-0.5,0.8-1,0.8H4.1c-0.7,0-1.4,0.6-1.4,1.4V72.1z" id="svg_1" class="" fill="#e84141" fill-opacity="1"/></g></svg>