<?xml version="1.0" encoding="iso-8859-1"?>
<!-- Generator: Adobe Illustrator 19.0.0, SVG Export Plug-In . SVG Version: 6.00 Build 0)  -->
<svg version="1.1" id="Capa_1" xmlns="http://www.w3.org/2000/svg" xmlns:xlink="http://www.w3.org/1999/xlink" x="0px" y="0px"
	 viewBox="0 0 512 512" style="enable-background:new 0 0 512 512;" xml:space="preserve">
<ellipse cx="217.268" cy="200.96" rx="201.04" ry="200.96"/>
<ellipse style="fill:#FFFFFF;" cx="217.268" cy="200.96" rx="167.384" ry="167.272"/>
<path style="fill:#CCCCCC;" d="M217.276,350.096c-82.296,0-149.248-66.904-149.248-149.152S134.98,51.792,217.276,51.792
	s149.248,66.912,149.248,149.16S299.572,350.096,217.276,350.096z M217.276,67.792c-73.48,0-133.248,59.736-133.248,133.16
	s59.776,133.152,133.248,133.152s133.248-59.728,133.248-133.152S290.756,67.792,217.276,67.792z"/>
<path style="fill:#E81241;" d="M217.276,350.376c-82.456,0-149.528-67.032-149.528-149.432s67.08-149.44,149.528-149.44
	s149.528,67.04,149.528,149.44S299.732,350.376,217.276,350.376z M217.276,55.504c-80.248,0-145.528,65.24-145.528,145.44
	c0,80.184,65.28,145.432,145.528,145.432s145.528-65.24,145.528-145.432C362.812,120.752,297.532,55.504,217.276,55.504z"/>
<polygon style="fill:#E21B1B;" points="495.772,424.808 469.204,512 356.076,398.872 412.956,341.992 "/>
<rect x="337.508" y="311.278" transform="matrix(-0.7071 0.7071 -0.7071 -0.7071 859.1461 336.0055)" width="44.952" height="69.319"/>
<g>
	
		<rect x="362.953" y="383.471" transform="matrix(-0.7071 0.7071 -0.7071 -0.7071 963.3727 379.1966)" style="fill:#FFFFFF;" width="80.399" height="11.296"/>
	
		<rect x="385.597" y="406.139" transform="matrix(-0.7071 0.7071 -0.7071 -0.7071 1018.0581 401.8799)" style="fill:#FFFFFF;" width="80.399" height="11.296"/>
</g>
<path style="fill:#E21B1B;" d="M217.276,148.008c-29.232,0-52.936,23.704-52.936,52.936s23.704,52.936,52.936,52.936
	c29.232,0,52.936-23.704,52.936-52.936S246.508,148.008,217.276,148.008z M217.276,232.896c-17.648,0-31.952-14.304-31.952-31.952
	s14.304-31.952,31.952-31.952c17.648,0,31.952,14.304,31.952,31.952S234.924,232.896,217.276,232.896z"/>
<path style="fill:#FFFFFF;" d="M326.34,217.28v-32.696l-24.208-2.424c-2.216-10.072-6.2-19.464-11.576-27.888l15.432-18.848
	l-23.12-23.12l-18.832,15.416c-8.424-5.392-17.832-9.376-27.912-11.616L233.7,91.952h-16.352h-0.136h-16.344l-2.424,24.152
	c-10.088,2.232-19.488,6.216-27.92,11.616L151.7,112.312l-23.12,23.12l15.416,18.84c-5.376,8.424-9.36,17.824-11.584,27.896
	l-24.192,2.424v32.696l24.192,2.424c2.216,10.08,6.2,19.464,11.584,27.904l-15.416,18.84l23.12,23.12l18.824-15.408
	c8.44,5.4,17.84,9.392,27.928,11.616l2.424,24.152h16.352h0.136h16.352l2.424-24.152c10.08-2.232,19.48-6.216,27.92-11.616
	l18.832,15.416l23.12-23.12l-15.432-18.856c5.376-8.424,9.352-17.816,11.568-27.88L326.34,217.28z M217.276,253.872
	c-29.232,0-52.936-23.704-52.936-52.936S188.044,148,217.276,148c29.232,0,52.936,23.704,52.936,52.936
	S246.508,253.872,217.276,253.872z"/>
<path style="fill:#BCBCBC;" d="M235.524,311.936H199.06l-2.456-24.52c-9.136-2.168-17.84-5.8-25.92-10.784l-19.12,15.64
	l-25.688-25.688l15.656-19.136c-4.968-8.064-8.584-16.768-10.752-25.896l-24.568-2.456v-36.32l24.568-2.456
	c2.176-9.152,5.792-17.84,10.752-25.896l-15.656-19.136l25.688-25.68l19.12,15.64c8.048-4.976,16.76-8.592,25.912-10.784
	l2.456-24.52h36.464l2.456,24.52c9.152,2.184,17.848,5.808,25.904,10.784l19.128-15.648l25.688,25.688l-15.664,19.136
	c4.968,8.08,8.576,16.776,10.744,25.888l24.576,2.456v36.32l-24.568,2.472c-2.168,9.12-5.776,17.816-10.736,25.88l15.664,19.144
	l-25.688,25.688l-19.128-15.648c-8.072,4.984-16.776,8.6-25.912,10.784L235.524,311.936z M202.684,307.936h29.208l2.392-23.8
	l1.416-0.312c9.664-2.136,18.832-5.952,27.264-11.352l1.216-0.784l18.56,15.184l20.56-20.56l-15.2-18.568l0.784-1.224
	c5.376-8.432,9.176-17.592,11.296-27.232l0.312-1.416l23.84-2.408V186.4l-23.84-2.392l-0.312-1.416
	c-2.128-9.64-5.928-18.808-11.312-27.24l-0.784-1.224l15.2-18.56l-20.56-20.56l-18.56,15.184l-1.216-0.784
	c-8.416-5.392-17.584-9.208-27.256-11.352l-1.416-0.312l-2.392-23.792h-29.208l-2.392,23.792l-1.416,0.312
	c-9.68,2.152-18.856,5.96-27.264,11.352l-1.216,0.776l-18.552-15.176l-20.56,20.552l15.192,18.56l-0.784,1.224
	c-5.376,8.416-9.176,17.576-11.32,27.248l-0.312,1.416L110.22,186.4v29.072l23.832,2.392l0.312,1.416
	c2.128,9.656,5.936,18.832,11.32,27.248l0.784,1.224l-15.192,18.56l20.56,20.56l18.552-15.176l1.216,0.784
	c8.44,5.408,17.616,9.216,27.272,11.344l1.416,0.312L202.684,307.936z M217.268,255.864c-30.288,0-54.928-24.64-54.928-54.928
	S186.98,146,217.268,146c30.288,0,54.936,24.648,54.936,54.936S247.556,255.864,217.268,255.864z M217.268,150
	c-28.088,0-50.928,22.848-50.928,50.936s22.84,50.928,50.928,50.928s50.936-22.84,50.936-50.928S245.356,150,217.268,150z"/>
<g>
</g>
<g>
</g>
<g>
</g>
<g>
</g>
<g>
</g>
<g>
</g>
<g>
</g>
<g>
</g>
<g>
</g>
<g>
</g>
<g>
</g>
<g>
</g>
<g>
</g>
<g>
</g>
<g>
</g>
</svg>
