<svg xmlns="http://www.w3.org/2000/svg" xmlns:xlink="http://www.w3.org/1999/xlink" version="1.1" enable-background="new 0 0 51 51" xml:space="preserve" width="48.923076923076906" height="48.769230769230774" style=""><rect id="backgroundrect" width="100%" height="100%" x="0" y="0" fill="none" stroke="none" class="" style=""/><g class="currentLayer" style=""><title>Layer 1</title><g id="svg_1" class="selected" fill="#e84141" fill-opacity="1"><path d="M28.07447541015663,35.40610642640991 c1.1547852,2.2714844000000003 2.4916992000000002,4.4765625 3.9746094000000003,6.5546875 l0.10888670000000006,0.1518555 c0.449707,0.6274414000000007 0.9150391,1.2763672000000001 1.1743164,1.9926758000000002 c0.03662110000000004,0.1020508 0.1328125,0.16503910000000022 0.2348633000000001,0.16503910000000022 c0.028320300000000027,0 0.05712890000000004,-0.004882800000000004 0.08496090000000008,-0.015136700000000012 c0.1298828,-0.046875000000000056 0.19726560000000018,-0.1899414000000003 0.14990230000000018,-0.31982420000000045 c-0.2822266000000002,-0.78125 -0.7680664,-1.4589844 -1.237793,-2.1142578 l-0.10791020000000005,-0.1508789 c-1.3793945,-1.9326172000000001 -2.6313477,-3.9765625 -3.7260742000000002,-6.081543 c0.017089800000000013,-0.07275390000000002 0.0019531000000000032,-0.1518555 -0.048339800000000065,-0.2143555 l-0.1899414000000003,-0.23779300000000014 c-0.08007810000000005,-0.1005859 -0.2226563000000001,-0.1220703 -0.33056640000000037,-0.05371090000000005 C28.053967610156633,35.15220022640991 28.01637001015663,35.29184862640991 28.07447541015663,35.40610642640991 z" id="svg_2" fill="#e84141" fill-opacity="1"/><path d="M34.97144811015663,40.23960252640991 l0.1108398,0.15527340000000014 c0.4487305000000002,0.6264648 0.9130859,1.2749023 1.1723633,1.9897461 c0.03662110000000004,0.1020508 0.1328125,0.16503910000000022 0.2348633000000001,0.16503910000000022 c0.028320300000000027,0 0.05712890000000004,-0.004882800000000004 0.08496090000000008,-0.015136700000000012 c0.1298828,-0.046875000000000056 0.19726560000000018,-0.19042970000000015 0.14990230000000018,-0.31982420000000045 c-0.2822266000000002,-0.7802734 -0.7670898000000007,-1.456543 -1.2353516,-2.1108398 l-0.11035160000000002,-0.15429690000000018 c-1.3779297000000001,-1.9296875 -2.6298828,-3.9736328 -3.7260742000000002,-6.0810547 c0.017089800000000013,-0.07275390000000002 0.0019531000000000032,-0.1523438000000001 -0.048339800000000065,-0.2148438000000001 l-0.19042970000000015,-0.23779300000000014 c-0.08007810000000005,-0.10156250000000006 -0.2226563000000001,-0.12304690000000006 -0.33056640000000037,-0.05371090000000005 c-0.10742190000000006,0.06933590000000008 -0.1450195000000001,0.20898440000000018 -0.08691410000000008,0.3232422000000002 C32.15308871015663,35.95981742640991 33.49049111015663,38.165383826409915 34.97144811015663,40.23960252640991 z" id="svg_3" fill="#e84141" fill-opacity="1"/><path d="M1.4314081101566318,42.45005182640991 c5.1879883,-4.8435059 2.9419556,-4.0717773 8.7094727,-3.7397461 c0.26763919999999997,4.6328735000000005 0.7763671999999994,4.0956421 -1.5610352,6.4550781 c-2.2331543,2.2525024 -2.4500122,2.3900146 -2.2705078,2.796875 c0.1705322000000001,0.3899536000000003 0.5340576,0.2771606000000002 0.6342773,0.2978516000000002 c6.9195557,0 5.468811,0.9168091 8.1567392,-2.3725586 c2.0859375,-2.5512695 2.0688477,-2.7646484000000004 1.1538086,-7.5844727 c0.8886108000000007,-0.8408203000000004 3.9689941,-3.8916016000000004 7.5697632,-7.4808369 c0.1652832000000002,0.0089111 0.310791,0.08185010000000002 0.4043579000000002,0.2220478000000002 l0.08691410000000008,0.1293945 c0.31591800000000037,0.4711914 0.7094727,1.0571289 0.6411133,1.3891602 c-0.008300800000000007,0.04003910000000006 -0.03369140000000004,0.1616211000000001 -0.2617188000000002,0.3085938000000002 c-0.9506836000000004,0.6123047 -1.2314453,1.4658203 -0.7504883,2.2836914 l7.0361328,11.9492188 c0.7760619999999996,1.3171997 2.4634399,1.6576538000000007 3.7021484,0.8564453000000004 c1.4116211,-0.9111328 2.8505859,-1.7802734 4.2773438,-2.5834961 c1.2999878,-0.7315674 1.7493896000000002,-2.3505249 0.9980469,-3.6269531 c-7.4723511,-11.6290302 -6.5549927,-13.3818989 -9.1254883,-12.5761738 c-0.5101318,0.1606445000000001 -0.7013550000000004,0.2200317000000001 -0.9277344000000004,-0.1694336000000002 c-0.41223139999999997,-0.7079468000000004 -1.0316162,-1.2915039 -0.4355469000000003,-1.7158203 c0.31542970000000037,-0.125 0.5991211000000004,-0.5151366999999996 0.6865234000000004,-0.6684570000000004 c0.5554199,-0.9713134999999993 -0.16369630000000018,-1.7275391 -0.2265625000000001,-1.9006348000000002 c3.9968262,-4.0059204 7.5305176,-7.5700684 8.4458008,-8.5373535 l0.14306640000000018,0.02734380000000002 c1.8662109,0.35498050000000037 2.9926758,0.5688477000000004 3.8613281,0.5688477000000004 c1.8058472,0 2.5082397,-0.9500122 4.9951172,-2.8847647 c1.6580811,-1.3578491000000001 0.9100342,-1.5678101 0.9584961,-7.1943364 c0.0042725,-0.43573 -0.5181274,-0.6705933000000004 -0.8413086000000004,-0.3701172000000002 c-5.2161865,4.8699956 -2.9818115,4.0704961 -8.7094727,3.7397466 c-0.3261719000000003,-5.6639409 -1.0542603,-3.575623 3.7397461,-8.7094727 c0.1362305,-0.14648440000000018 0.1723633000000001,-0.3593750000000002 0.09179690000000017,-0.5424804999999996 c-0.2140503000000001,-0.4894409000000003 -0.1037598,-0.1737061000000001 -4.1567383,-0.39501950000000036 c-2.9547119,-0.16143800000000022 -2.6835938,-0.026367200000000028 -5.2744141,3.3046875 c-1.2983398,1.65625 -1.4135742,1.9760742 -0.5136719000000004,6.7490239 c-1.0016479,0.947937 -4.7933959999999995,4.7089224000000005 -8.9755249,8.8834219 c-2.5967407000000002,-4.1652832 -5.8585815,-9.4052725 -6.3418579,-10.1817617 l-0.4462891000000002,-4.0991216 c-0.012207000000000011,-0.11328130000000006 -0.0629883,-0.2187500000000001 -0.1435547,-0.29931640000000037 c-0.3852539000000002,-0.3852539000000002 -3.8081064,-3.777832 -5.3042002,-4.355957 c-0.1411133000000001,-0.05517580000000004 -0.3017578,-0.04199220000000003 -0.43408200000000036,0.0356445 L8.868908110156632,1.7273941264099126 C8.73756041015663,1.8045425264099122 8.648693210156631,1.937843326409912 8.627697110156632,2.089210526409912 c-0.22119140000000018,1.5888672000000001 1.0864258,6.2275395 1.2358398,6.7514653 c0.03173830000000004,0.10937500000000006 0.09960940000000011,0.2050781 0.1923828000000001,0.2705078 l3.3681641,2.3789063 c0.4863281000000004,0.8742676 4.0310068,7.2476797 6.4791269,11.6585073 c-4.3598633,4.3662109000000004 -8.3709726,8.4083271 -9.3551035,9.4484272 l-0.3012695,-0.057617200000000056 c-4.5765381,-0.8724365 -4.7080688,-0.8667603 -7.3339844,1.2583008 c-3.3673706,2.7282104 -2.2626343,1.2953491000000001 -2.3227539,8.2822266 C0.5868646101566316,42.51719042640991 1.1081659101566321,42.749551326409915 1.4314081101566318,42.45005182640991 zM29.09888951015663,26.351905326409913 c-0.7224120999999996,0.2791138 -1.1953125,1.3963013000000002 -0.621582,2.2539063 c0.8571167,1.2814331 0.9831542999999996,2.0496826 2.6547852,1.5224609 c0.5026855,-0.1574707000000001 0.6885986000000007,-0.22583010000000014 0.9140624999999996,0.1572266000000001 l7.050293,11.9721699 c0.4701538,0.7998657 0.17779540000000021,1.7943115 -0.6269531,2.2485352 c-1.4443359,0.8129883 -2.9008789,1.6923828 -4.3295898,2.6147461 c-0.7675781,0.4951172000000002 -1.8452148,0.24511720000000015 -2.2983398,-0.5244140999999996 L24.80592071015663,34.64780572640991 c-0.08398440000000006,-0.14306640000000018 -0.28125,-0.4775391 0.4301758000000002,-0.9355469 c0.3857422000000002,-0.24853520000000018 0.6210938000000007,-0.5673828 0.6992188000000007,-0.9472656 c0.1538086000000001,-0.7426758000000009 -0.34765630000000036,-1.4897461 -0.7900391,-2.1484394 l-0.08496090000000008,-0.1269531 c-0.12170410000000009,-0.1825562000000001 -0.2833252000000002,-0.3257446000000002 -0.4630127000000002,-0.4384766000000004 c1.5046387,-1.5009155 3.0769653,-3.0726929 4.6019287,-4.6000977 l0.07299800000000002,0.12402340000000008 C29.50465121015663,25.97006942640991 29.214612110156633,26.258643626409913 29.09888951015663,26.351905326409913 zM14.242443210156631,10.904152426409912 c-0.03662110000000004,-0.06542970000000008 -0.08740230000000006,-0.1220703 -0.1484375000000001,-0.16503910000000022 L10.777599510156632,8.396828126409913 c-0.3920898000000004,-1.3974609 -1.2089844,-4.6225591 -1.1767578,-5.9399419 l1.7055664,-1.0043945 c1.1669922000000001,0.6113281 3.5913086,2.8896484000000004 4.6235361,3.9101562999999997 l0.4394531000000002,4.0366216 c0.008300800000000007,0.07470700000000002 0.03271480000000003,0.14648440000000018 0.07275390000000002,0.20996090000000014 c0.2341309,0.3760376 3.7853394,6.0813589 6.5246582,10.4754019 c-0.7728271,0.7719727 -1.5531616000000001,1.5520019999999999 -2.3283081,2.3278198000000003 C18.087109710156632,17.81632182640991 14.469433010156632,11.312416526409912 14.242443210156631,10.904152426409912 zM3.5422479101566315,34.57505182640991 c1.4614258,-1.1831055 1.9536133,-1.581543 2.9990234,-1.581543 c0.7480469000000004,0 1.7905273,0.19873050000000014 3.5180664,0.5283203 l0.5742188,0.10937500000000006 c0.1762695000000001,0.03320310000000005 0.37207030000000035,-0.04296880000000003 0.4882813000000002,-0.1845703000000001 c0.5664062999999996,-0.6894531 21.7070313,-21.8300781 22.3881836,-22.3901367 c0.1538086000000001,-0.1142578 0.22851560000000018,-0.3066406000000002 0.1928711000000001,-0.49462890000000037 c-0.8984375,-4.7324224 -0.8325195,-4.8159184 0.2773438000000002,-6.2319341 c2.9486694,-3.7930298000000002 1.4420166,-2.885376 7.0166016,-2.8139648 c-3.4783325,3.625 -3.6451416,3.1872559000000003 -3.3657227,6.5239263 c0.20300290000000001,2.4324951 0.03308110000000003,2.972168 0.6503906000000007,3.0039063 c5.3676147,0.2716064 4.868042,0.9493408000000004 7.6279297,-1.7919922000000001 c0.3896484000000003,-0.387207 0.8535156,-0.8481445000000004 1.4233398,-1.3950195 c0.04248050000000001,4.6190796 0.5063477,4.3643188 -0.5825195,5.2558594 c-3.8552246,2.9965810999999998 -2.9004517,3.0928946 -8.0454102,2.1147451 l-0.4155273000000002,-0.07910160000000008 c-0.18115230000000004,-0.036132800000000055 -0.37255860000000035,0.04248050000000001 -0.4882813000000002,0.1845703000000001 c-0.5664062999999996,0.6894531 -21.7070313,21.83008 -22.3881836,22.3901386 c-0.1538086000000001,0.1142578 -0.22851560000000018,0.3066406000000002 -0.1928711000000001,0.49462890000000037 l0.026367200000000028,0.1386719 c0.8896484000000009,4.6850586000000005 0.8896484000000009,4.6850586000000005 -0.9199228,6.8979492 c-2.2007446,2.6890259000000007 -0.9790648999999996,2.1915894000000002 -6.4135742,2.0224609 c3.4785767,-3.6269531 3.65802,-3.18927 3.378418,-6.5424805 c-0.054687500000000056,-0.6538086000000007 -0.1225586,-1.4711914 -0.1757813000000001,-2.5244141 c-0.013183600000000007,-0.2563477 -0.21777340000000014,-0.4609375 -0.4741211,-0.4741211 c-6.2362671,-0.3147583000000002 -4.5444336,-1.1420288 -9.0512695,3.1870117000000002 C1.5377313101566314,35.46817922640991 0.7438470101566317,36.841226126409914 3.5422479101566315,34.57505182640991 z" id="svg_4" fill="#e84141" fill-opacity="1"/></g></g></svg>