<svg xmlns="http://www.w3.org/2000/svg" xmlns:xlink="http://www.w3.org/1999/xlink" enable-background="new 0 0 512 512" height="512" version="1.1" width="512" xml:space="preserve" style=""><rect id="backgroundrect" width="100%" height="100%" x="0" y="0" fill="none" stroke="none"/><g class="currentLayer" style=""><title>Layer 1</title><rect fill="#fff" stroke="#c09300" stroke-dashoffset="" fill-rule="nonzero" id="svg_4" x="103.16216278076172" y="112.21621704101562" width="320.9189124107361" height="299.8648741841316" style="color: rgb(0, 0, 0);" class=""/><g id="svg_1" class=""><linearGradient id="SVGID_1_" x1="-1.9748515645676108" x2="2.3637149501418433" y1="-1.312348535831351" y2="2.30307385237002"><stop offset="0" style="stop-color:#DD272D"/><stop offset="0.5153" style="stop-color:#CA2429"/><stop offset="1" style="stop-color:#B22025"/></linearGradient><polygon fill="url(#SVGID_1_)" points="217.949,313.149 313.196,256 217.949,198.851  " id="svg_2"/><linearGradient id="SVGID_2_" x1="0.0647911631275939" x2="0.8949080458034038" y1="0.0647911631275939" y2="0.8949078618901828"><stop offset="0" style="stop-color:#DD272D"/><stop offset="0.5153" style="stop-color:#CA2429"/><stop offset="1" style="stop-color:#B22025"/></linearGradient><path d="M256,7.098C118.535,7.098,7.098,118.535,7.098,256c0,137.465,111.437,248.902,248.902,248.902   c137.465,0,248.902-111.437,248.902-248.902C504.902,118.535,393.465,7.098,256,7.098z M408.349,268.287   c0,26.307-3.048,52.605-3.048,52.605s-2.981,22.402-12.106,32.251c-11.592,12.935-24.574,13.011-30.527,13.773   C320.026,370.183,256,370.297,256,370.297s-79.227-0.771-103.601-3.267c-6.782-1.353-21.993-0.962-33.594-13.897   c-9.134-9.849-12.106-32.251-12.106-32.251s-3.048-26.289-3.048-52.605v-24.65c0-26.298,3.048-52.596,3.048-52.596   s2.981-22.412,12.106-32.279c11.601-12.935,24.574-13.011,30.527-13.744c42.633-3.305,106.592-3.305,106.592-3.305h0.143   c0,0,63.959,0,106.601,3.305c5.953,0.733,18.935,0.81,30.527,13.744c9.134,9.868,12.106,32.279,12.106,32.279   s3.048,26.298,3.048,52.605V268.287z" fill="url(#SVGID_2_)" id="svg_3"/></g></g></svg>