<?xml version="1.0" standalone="no"?>
<!DOCTYPE svg PUBLIC "-//W3C//DTD SVG 20010904//EN"
 "http://www.w3.org/TR/2001/REC-SVG-20010904/DTD/svg10.dtd">
<svg version="1.0" xmlns="http://www.w3.org/2000/svg"
 width="697.000000pt" height="697.000000pt" viewBox="0 0 697.000000 697.000000"
 preserveAspectRatio="xMidYMid meet">
<metadata>
Created by potrace 1.14, written by Peter Selinger 2001-2017
</metadata>
<g transform="translate(0.000000,697.000000) scale(0.100000,-0.100000)"
fill="#000000" stroke="none">
<path d="M3059 5635 c-3 -2 -58 -6 -124 -10 -66 -3 -142 -8 -170 -10 -27 -2
-86 -7 -130 -10 -96 -7 -166 -13 -220 -20 -22 -3 -60 -7 -85 -10 -60 -5 -132
-14 -205 -25 -33 -5 -80 -12 -105 -15 -49 -7 -86 -13 -190 -30 -19 -3 -48 -8
-65 -11 -16 -2 -52 -9 -80 -14 -27 -6 -61 -13 -75 -15 -14 -3 -38 -8 -55 -11
-120 -21 -428 -100 -610 -156 -262 -80 -659 -248 -709 -300 -88 -91 -120 -242
-78 -363 35 -102 431 -640 751 -1020 99 -117 112 -133 136 -160 11 -12 43 -48
70 -80 28 -31 59 -67 70 -79 11 -12 62 -69 114 -126 52 -58 101 -112 110 -121
9 -8 42 -43 75 -76 l58 -61 -31 -46 -32 -46 53 -1 c29 -1 63 -2 75 -2 15 0 80
-57 201 -176 234 -231 445 -430 558 -528 12 -10 52 -46 90 -79 151 -135 215
-184 242 -186 117 -6 213 12 302 57 38 19 223 154 240 175 3 3 23 19 45 35 22
16 45 34 50 39 6 6 44 38 85 71 41 32 117 95 169 139 l94 80 -38 31 c-38 30
-345 281 -393 321 l-24 20 681 0 c374 0 681 -3 681 -6 0 -6 -164 -170 -225
-225 -16 -15 -70 -64 -120 -110 -49 -45 -108 -97 -130 -116 -21 -19 -46 -41
-55 -49 -8 -8 -56 -49 -105 -90 -50 -41 -96 -81 -104 -88 -8 -8 -46 -39 -85
-70 -39 -31 -73 -59 -76 -63 -14 -15 -316 -250 -458 -355 l-162 -119 23 -18
c62 -49 159 -107 212 -127 111 -42 285 -34 394 17 28 14 209 142 266 190 6 5
71 57 145 118 74 60 137 111 140 114 3 3 32 28 65 56 33 27 62 52 65 55 3 3
39 34 80 70 41 36 91 79 110 97 19 17 46 41 60 53 25 22 172 158 265 245 28
26 136 131 240 235 l190 188 58 -2 c31 -1 57 1 57 4 0 3 -9 19 -20 35 -11 17
-20 33 -20 36 0 3 24 31 53 61 136 144 211 225 337 368 41 47 87 98 103 115
39 42 164 251 186 310 25 70 22 172 -8 252 -32 86 -82 133 -184 172 -45 18
-91 36 -102 41 -104 47 -555 167 -736 196 -59 9 -74 11 -144 23 -33 5 -78 13
-100 16 -23 3 -51 7 -64 10 -12 2 -52 7 -89 10 -37 3 -74 8 -82 10 -8 2 -50 7
-92 10 -43 4 -86 8 -95 10 -10 2 -21 4 -25 4 -4 1 -26 32 -50 71 -24 38 -46
70 -49 70 -4 0 -26 -26 -50 -57 -23 -32 -47 -61 -53 -65 -5 -4 -35 -5 -66 -3
-30 2 -62 4 -72 4 -9 1 -84 98 -185 242 -92 132 -194 276 -225 319 -32 43 -58
81 -58 85 0 7 311 -2 375 -10 17 -2 68 -7 115 -10 142 -10 287 -24 420 -41 19
-2 55 -6 80 -9 61 -7 199 -25 230 -30 86 -14 269 -45 300 -51 14 -3 48 -9 75
-14 162 -29 621 -132 755 -170 357 -101 515 -150 724 -224 70 -25 132 -46 136
-46 4 0 14 17 23 38 56 128 35 285 -51 384 -20 22 -68 53 -129 82 -54 26 -106
52 -115 57 -41 21 -233 95 -368 141 -179 60 -489 144 -675 182 -16 4 -41 9
-55 11 -51 11 -126 26 -150 30 -206 36 -238 41 -305 49 -27 4 -61 9 -75 11
-28 5 -73 11 -140 19 -25 3 -83 10 -130 15 -47 6 -119 13 -160 16 -41 4 -91 8
-110 10 -19 2 -82 7 -140 10 -58 4 -123 9 -145 12 -49 5 -971 14 -976 8z m71
-462 c0 -1 -82 -118 -182 -260 -100 -142 -201 -287 -226 -323 -65 -95 -73
-101 -128 -106 -54 -4 -74 -7 -254 -29 -69 -9 -150 -18 -180 -21 -88 -9 -99
11 114 -218 55 -60 100 -114 98 -120 -2 -5 -12 -23 -24 -38 -17 -25 -26 -29
-53 -25 l-34 5 -16 -73 c-8 -40 -28 -91 -43 -114 l-27 -42 -75 78 c-175 182
-441 489 -568 656 -64 84 -89 159 -72 215 26 81 73 145 131 177 98 54 551 157
829 189 30 4 66 9 80 11 14 2 61 7 105 10 44 3 96 8 115 10 19 2 100 7 180 10
80 4 146 7 147 8 2 3 83 2 83 0z m90 -2 c0 -3 -5 -13 -10 -21 -9 -13 -11 -13
-19 0 -5 8 -8 17 -6 20 5 8 35 9 35 1z"/>
</g>
</svg>
